<svg width="52" height="52" viewBox="0 0 52 52" fill="none" xmlns="http://www.w3.org/2000/svg">
<path fill-rule="evenodd" clip-rule="evenodd" d="M12.8839 0C5.76836 0 0 5.76837 0 12.8839C0 19.4325 4.88584 24.84 11.2111 25.6601H1.28807V50.1395H25.7674V40.2086C26.5839 46.5377 31.9933 51.4279 38.5447 51.4279C45.6602 51.4279 51.4286 45.6596 51.4286 38.5439C51.4286 31.9954 46.5429 26.5879 40.2178 25.7679H50.1403V1.28843H25.6609V11.2168C24.8434 4.88881 19.4345 0 12.8839 0ZM37.3591 25.7139C31.1883 25.1509 26.2753 20.2366 25.7143 14.0652C25.1533 20.2367 20.24 25.1511 14.0691 25.7139C20.2406 26.277 25.1539 31.1922 25.7141 37.3645C26.2744 31.1922 31.1877 26.277 37.3591 25.7139Z" fill="url(#paint0_linear_911_29075)"/>
<defs>
<linearGradient id="paint0_linear_911_29075" x1="0" y1="0" x2="51.4279" y2="51.4286" gradientUnits="userSpaceOnUse">
<stop stop-color="#1527A0"/>
<stop offset="1" stop-color="#0277C8"/>
</linearGradient>
</defs>
</svg>
