<svg width="30" height="30" viewBox="0 0 30 30" fill="none" xmlns="http://www.w3.org/2000/svg">
<path fill-rule="evenodd" clip-rule="evenodd" d="M7.51558 0C3.36488 0 0 3.36488 0 7.51559C0 11.3356 2.85007 14.49 6.5398 14.9684H0.751372V29.248H15.031V23.455C15.5073 27.147 18.6627 29.9996 22.4844 29.9996C26.6351 29.9996 30 26.6348 30 22.4839C30 18.664 27.15 15.5096 23.4604 15.0312H29.2485V0.751585H14.9689V6.54315C14.492 2.85181 11.3368 0 7.51558 0ZM21.7928 14.9998C18.1932 14.6714 15.3273 11.8047 15 8.20471C14.6727 11.8047 11.8067 14.6715 8.20698 14.9998C11.807 15.3283 14.6731 18.1954 14.9999 21.7959C15.3268 18.1954 18.1928 15.3283 21.7928 14.9998Z" fill="url(#paint0_linear_946_11276)"/>
<defs>
<linearGradient id="paint0_linear_946_11276" x1="0" y1="0" x2="27.5" y2="30" gradientUnits="userSpaceOnUse">
<stop offset="0.437997" stop-color="white"/>
<stop offset="1" stop-color="#F7F7F7"/>
</linearGradient>
</defs>
</svg>
