<svg width="28" height="28" viewBox="0 0 28 28" xmlns="http://www.w3.org/2000/svg">
    <g fill="none" fill-rule="evenodd">
        <path d="M0 28h28V0H0z"/>
        <path d="M9.95 6.071a.797.797 0 0 0-.566.234l-7.15 7.151a.8.8 0 0 0 0 1.13l7.15 7.15a.797.797 0 0 0 1.13 0l7.15-7.15a.798.798 0 0 0 0-1.13l-7.15-7.15a.797.797 0 0 0-.564-.235m0 1.084 6.866 6.865-6.866 6.866-6.866-6.866L9.95 7.155" fill="#FFF"/>
        <path d="M4.873 13.821a.287.287 0 1 1-.406.406.287.287 0 0 1 .406-.406M10.155 8.54a.287.287 0 1 1-.406.405.287.287 0 0 1 .406-.406M9.275 9.42a.287.287 0 1 1-.406.405.287.287 0 0 1 .406-.405M8.395 10.3a.287.287 0 1 1-.407.406.287.287 0 0 1 .407-.406M7.514 11.18a.287.287 0 1 1-.406.406.287.287 0 0 1 .406-.406M6.634 12.06a.287.287 0 1 1-.407.406.287.287 0 0 1 .407-.405M5.754 12.94a.287.287 0 1 1-.407.407.287.287 0 0 1 .407-.406M5.752 14.7a.287.287 0 1 1-.406.406.287.287 0 0 1 .406-.406M11.034 9.418a.287.287 0 1 1-.406.406.287.287 0 0 1 .406-.406M10.154 10.298a.287.287 0 1 1-.407.406.287.287 0 0 1 .407-.406M9.274 11.179a.287.287 0 1 1-.407.406.287.287 0 0 1 .407-.406M8.393 12.06a.287.287 0 1 1-.406.405.287.287 0 0 1 .406-.406M7.513 12.94a.287.287 0 1 1-.407.406.287.287 0 0 1 .407-.407M6.633 13.82a.287.287 0 1 1-.407.406.287.287 0 0 1 .407-.406M6.631 15.58a.287.287 0 1 1-.406.405.287.287 0 0 1 .406-.406M11.913 10.297a.287.287 0 1 1-.406.406.287.287 0 0 1 .406-.406M11.033 11.177a.287.287 0 1 1-.407.406.287.287 0 0 1 .407-.406M7.511 14.699a.287.287 0 1 1-.406.406.287.287 0 0 1 .406-.406M7.51 16.458a.287.287 0 1 1-.406.406.287.287 0 0 1 .406-.406M12.792 11.176a.287.287 0 1 1-.406.406.287.287 0 0 1 .406-.406M11.912 12.056a.287.287 0 1 1-.407.406.287.287 0 0 1 .407-.406M8.39 15.578a.287.287 0 1 1-.406.406.287.287 0 0 1 .406-.406M8.389 17.337a.287.287 0 1 1-.407.406.287.287 0 0 1 .407-.406M13.671 12.055a.287.287 0 1 1-.406.406.287.287 0 0 1 .406-.406M12.79 12.935a.287.287 0 1 1-.406.406.287.287 0 0 1 .407-.406M9.27 16.457a.287.287 0 1 1-.407.406.287.287 0 0 1 .406-.406M9.268 18.216a.287.287 0 1 1-.407.406.287.287 0 0 1 .407-.406M14.55 12.934a.287.287 0 1 1-.407.406.287.287 0 0 1 .407-.406M13.67 13.814a.287.287 0 1 1-.407.406.287.287 0 0 1 .407-.406M12.79 14.695a.287.287 0 1 1-.407.406.287.287 0 0 1 .406-.406M11.909 15.575a.287.287 0 1 1-.407.406.287.287 0 0 1 .407-.406M11.029 16.455a.287.287 0 1 1-.407.406.287.287 0 0 1 .407-.406M10.148 17.335a.287.287 0 1 1-.406.406.287.287 0 0 1 .406-.405M3.704 19.368a.287.287 0 1 1-.407.406.287.287 0 0 1 .407-.406M15.429 13.813a.287.287 0 1 1-.407.406.287.287 0 0 1 .407-.406M14.549 14.693a.287.287 0 1 1-.407.406.287.287 0 0 1 .407-.406M13.668 15.573a.287.287 0 1 1-.406.406.287.287 0 0 1 .406-.406M12.788 16.454a.287.287 0 1 1-.407.406.287.287 0 0 1 .407-.406M11.907 17.334a.287.287 0 1 1-.406.406.287.287 0 0 1 .406-.406M11.027 18.215a.287.287 0 1 1-.406.405.287.287 0 0 1 .406-.405M10.153 12.938a.287.287 0 1 1-.406.406.287.287 0 0 1 .406-.406M9.273 13.818a.287.287 0 1 1-.407.406.287.287 0 0 1 .407-.406M11.032 13.817a.287.287 0 1 1-.406.406.287.287 0 0 1 .406-.406M10.152 14.697a.287.287 0 1 1-.407.406.287.287 0 0 1 .407-.406" fill="#FFF"/>
        <path d="m14.849 8.942 2.637-2.637a.798.798 0 0 1 1.129 0l7.151 7.151a.798.798 0 0 1 0 1.13l-7.151 7.15a.798.798 0 0 1-1.129 0l-2.67-2.67" stroke="#FFF" stroke-linecap="round"/>
        <path d="M18.452 8.54a.287.287 0 1 1-.407.405.287.287 0 0 1 .407-.406M17.572 9.42a.287.287 0 1 1-.407.405.287.287 0 0 1 .407-.405M16.691 10.3a.287.287 0 1 1-.406.406.287.287 0 0 1 .406-.406M19.33 9.418a.287.287 0 1 1-.406.406.287.287 0 0 1 .407-.406M18.45 10.298a.287.287 0 1 1-.406.406.287.287 0 0 1 .407-.406M17.57 11.179a.287.287 0 1 1-.406.406.287.287 0 0 1 .406-.406M20.21 10.297a.287.287 0 1 1-.407.406.287.287 0 0 1 .407-.406M19.33 11.177a.287.287 0 1 1-.407.406.287.287 0 0 1 .406-.406M21.089 11.176a.287.287 0 1 1-.407.406.287.287 0 0 1 .407-.406M20.208 12.056a.287.287 0 1 1-.406.406.287.287 0 0 1 .406-.406M16.686 17.337a.287.287 0 1 1-.407.406.287.287 0 0 1 .407-.406M21.968 12.055a.287.287 0 1 1-.407.406.287.287 0 0 1 .407-.406M21.087 12.935a.287.287 0 1 1-.406.406.287.287 0 0 1 .406-.406M17.566 16.457a.287.287 0 1 1-.407.406.287.287 0 0 1 .407-.406M17.564 18.216a.287.287 0 1 1-.406.406.287.287 0 0 1 .406-.406M22.847 12.934a.287.287 0 1 1-.407.406.287.287 0 0 1 .407-.406M21.966 13.814a.287.287 0 1 1-.406.406.287.287 0 0 1 .406-.406M21.086 14.695a.287.287 0 1 1-.407.405.287.287 0 0 1 .407-.405M20.205 15.575a.287.287 0 1 1-.406.406.287.287 0 0 1 .406-.406M19.325 16.455a.287.287 0 1 1-.406.406.287.287 0 0 1 .406-.406M18.445 17.335a.287.287 0 1 1-.407.406.287.287 0 0 1 .407-.405M18.443 19.095a.287.287 0 1 1-.406.406.287.287 0 0 1 .406-.406M23.725 13.813a.287.287 0 1 1-.406.406.287.287 0 0 1 .406-.406M22.845 14.693a.287.287 0 1 1-.406.406.287.287 0 0 1 .406-.406M21.965 15.573a.287.287 0 1 1-.407.406.287.287 0 0 1 .407-.406M21.084 16.454a.287.287 0 1 1-.406.406.287.287 0 0 1 .406-.406M20.204 17.334a.287.287 0 1 1-.407.406.287.287 0 0 1 .407-.406M19.324 18.215a.287.287 0 1 1-.407.405.287.287 0 0 1 .407-.405" fill="#FFF"/>
    </g>
</svg>
