<svg xmlns="http://www.w3.org/2000/svg" width="40" height="40" viewBox="0 0 40 40">
    <g fill="none" fill-rule="evenodd">
        <g fill="#8F8F8F" fill-rule="nonzero">
            <g>
                <g>
                    <path d="M20 1.042C30.47 1.042 38.958 9.53 38.958 20c0 10.47-8.487 18.958-18.958 18.958C9.53 38.958 1.042 30.471 1.042 20 1.042 9.53 9.53 1.042 20 1.042zm0 2.083C10.68 3.125 3.125 10.68 3.125 20S10.68 36.875 20 36.875 36.875 29.32 36.875 20 29.32 3.125 20 3.125zm0 23.542c.92 0 1.667.745 1.667 1.666 0 .92-.747 1.667-1.667 1.667s-1.667-.747-1.667-1.667.747-1.666 1.667-1.666zm1.042-17.292v14.792h-2.084V11.4l.044-2.026h2.04z" transform="translate(-700.000000, -440.000000) translate(320.000000, 440.000000) translate(380.000000, 0.000000)"/>
                </g>
            </g>
        </g>
    </g>
</svg>
