<svg xmlns="http://www.w3.org/2000/svg" width="24" height="24" viewBox="0 0 24 24">
    <g fill="none" fill-rule="evenodd">
        <g fill="#333" fill-rule="nonzero">
            <g>
                <g>
                    <path d="M7.826 21.14c8.491 0 13.134-7.032 13.134-13.13 0-.2-.004-.399-.013-.597.901-.651 1.685-1.464 2.303-2.39-.827.368-1.718.616-2.651.727.953-.571 1.685-1.475 2.03-2.553-.893.529-1.88.913-2.931 1.12-.843-.896-2.043-1.458-3.37-1.458-2.55 0-4.617 2.067-4.617 4.615 0 .362.04.714.12 1.052-3.836-.193-7.238-2.03-9.515-4.821-.397.681-.625 1.474-.625 2.32 0 1.6.815 3.014 2.054 3.84-.757-.023-1.469-.23-2.09-.577-.002.02-.002.039-.002.06 0 2.235 1.591 4.1 3.704 4.524-.388.105-.796.162-1.217.162-.297 0-.587-.03-.868-.083.588 1.833 2.292 3.168 4.313 3.205-1.58 1.238-3.571 1.976-5.734 1.976-.373 0-.74-.022-1.101-.064 2.043 1.309 4.469 2.073 7.076 2.073" transform="translate(-158.000000, -963.000000) translate(158.000000, 955.000000) translate(0.000000, 8.000000)"/>
                </g>
            </g>
        </g>
    </g>
</svg>
