<svg width="28" height="28" viewBox="0 0 28 28" xmlns="http://www.w3.org/2000/svg">
    <g fill="none" fill-rule="evenodd">
        <path d="M0 28h28V0H0z"/>
        <path d="M18.535 4.923a4.468 4.468 0 0 0-4.465 4.46 4.4 4.4 0 0 0 .181 1.204L5.65 19.152a2.209 2.209 0 0 0-.008 3.12 2.197 2.197 0 0 0 3.115.008l8.62-8.585c.368.098.747.168 1.146.17h.013a4.468 4.468 0 0 0 4.465-4.46 4.453 4.453 0 0 0-.289-1.554l-1.145 1.141a.892.892 0 0 1-1.264-.002l-1.391-1.4a.896.896 0 0 1 .003-1.267l1.127-1.122a4.419 4.419 0 0 0-1.495-.28h-.012m-.609 1.054a1.9 1.9 0 0 0 .277 2.32l1.39 1.4c.358.36.835.559 1.343.559.367 0 .718-.105 1.019-.298a3.478 3.478 0 0 1-3.429 2.909c-.265 0-.547-.044-.889-.136l-.557-.15-.409.406-8.619 8.587c-.227.226-.528.35-.848.35a1.208 1.208 0 0 1-.848-2.061l8.6-8.568.415-.412-.157-.563a3.427 3.427 0 0 1-.144-.934 3.476 3.476 0 0 1 2.856-3.409" fill="#FFF"/>
    </g>
</svg>
