<svg width="96" height="96" viewBox="0 0 96 96" fill="none" xmlns="http://www.w3.org/2000/svg">
<path fill-rule="evenodd" clip-rule="evenodd" d="M86.9855 14.5426C84.5772 8.8435 78.486 5.63137 72.4228 6.86307C66.3596 8.09477 62.0045 13.429 62.0108 19.616C62.016 20.3603 62.0829 21.1028 62.2108 21.836L30.0808 38.766L29.8354 38.5321C24.7156 33.7763 16.7166 33.9147 11.7655 38.9031C6.73443 43.9719 6.73443 52.1501 11.7655 57.219C16.7965 62.2878 24.9745 62.349 30.0808 57.356L62.2108 74.286L62.1414 74.727C62.0586 75.3163 62.015 75.9106 62.0108 76.506C62.0714 83.6711 67.9183 89.4362 75.0835 89.3962C82.2487 89.3555 88.0303 83.525 88.0103 76.3597C87.9902 69.1944 82.1761 63.3963 75.0108 63.396C71.5903 63.3991 68.3106 64.7585 65.8908 67.176L33.8108 50.276L33.8828 49.8356C34.0747 48.5116 34.0507 47.1642 33.8108 45.846L65.9408 28.916L66.185 29.1478C70.6221 33.253 77.3266 33.764 82.3428 30.3379C87.4519 26.8484 89.3938 20.2417 86.9855 14.5426ZM71.2484 72.9334C72.7008 71.4491 74.907 70.9913 76.8301 71.7754C78.7531 72.5595 80.0103 74.4293 80.0108 76.506C80.0386 79.2968 77.8015 81.5831 75.0108 81.616C72.9346 81.6607 71.0378 80.4445 70.2121 78.539C69.3864 76.6335 69.796 74.4178 71.2484 72.9334ZM21.0108 43.116C18.2494 43.116 16.0108 45.3546 16.0108 48.116C16.0108 50.8775 18.2494 53.116 21.0108 53.116C23.7722 53.116 26.0108 50.8775 26.0108 48.116C26.0108 45.3546 23.7722 43.116 21.0108 43.116ZM70.0108 19.616C70.0108 16.8546 72.2494 14.616 75.0108 14.616C77.7722 14.616 80.0108 16.8546 80.0108 19.616C80.0108 22.3775 77.7722 24.616 75.0108 24.616C72.2494 24.616 70.0108 22.3775 70.0108 19.616Z" fill="white"/>
<path fill-rule="evenodd" clip-rule="evenodd" d="M86.9855 14.5426C84.5772 8.8435 78.486 5.63137 72.4228 6.86307C66.3596 8.09477 62.0045 13.429 62.0108 19.616C62.016 20.3603 62.0829 21.1028 62.2108 21.836L30.0808 38.766L29.8354 38.5321C24.7156 33.7763 16.7166 33.9147 11.7655 38.9031C6.73443 43.9719 6.73443 52.1501 11.7655 57.219C16.7965 62.2878 24.9745 62.349 30.0808 57.356L62.2108 74.286L62.1414 74.727C62.0586 75.3163 62.015 75.9106 62.0108 76.506C62.0714 83.6711 67.9183 89.4362 75.0835 89.3962C82.2487 89.3555 88.0303 83.525 88.0103 76.3597C87.9902 69.1944 82.1761 63.3963 75.0108 63.396C71.5903 63.3991 68.3106 64.7585 65.8908 67.176L33.8108 50.276L33.8828 49.8356C34.0747 48.5116 34.0507 47.1642 33.8108 45.846L65.9408 28.916L66.185 29.1478C70.6221 33.253 77.3266 33.764 82.3428 30.3379C87.4519 26.8484 89.3938 20.2417 86.9855 14.5426ZM71.2484 72.9334C72.7008 71.4491 74.907 70.9913 76.8301 71.7754C78.7531 72.5595 80.0103 74.4293 80.0108 76.506C80.0386 79.2968 77.8015 81.5831 75.0108 81.616C72.9346 81.6607 71.0378 80.4445 70.2121 78.539C69.3864 76.6335 69.796 74.4178 71.2484 72.9334ZM21.0108 43.116C18.2494 43.116 16.0108 45.3546 16.0108 48.116C16.0108 50.8775 18.2494 53.116 21.0108 53.116C23.7722 53.116 26.0108 50.8775 26.0108 48.116C26.0108 45.3546 23.7722 43.116 21.0108 43.116ZM70.0108 19.616C70.0108 16.8546 72.2494 14.616 75.0108 14.616C77.7722 14.616 80.0108 16.8546 80.0108 19.616C80.0108 22.3775 77.7722 24.616 75.0108 24.616C72.2494 24.616 70.0108 22.3775 70.0108 19.616Z" fill="white" fill-opacity="0.2"/>
<path fill-rule="evenodd" clip-rule="evenodd" d="M86.9855 14.5426C84.5772 8.8435 78.486 5.63137 72.4228 6.86307C66.3596 8.09477 62.0045 13.429 62.0108 19.616C62.016 20.3603 62.0829 21.1028 62.2108 21.836L30.0808 38.766L29.8354 38.5321C24.7156 33.7763 16.7166 33.9147 11.7655 38.9031C6.73443 43.9719 6.73443 52.1501 11.7655 57.219C16.7965 62.2878 24.9745 62.349 30.0808 57.356L62.2108 74.286L62.1414 74.727C62.0586 75.3163 62.015 75.9106 62.0108 76.506C62.0714 83.6711 67.9183 89.4362 75.0835 89.3962C82.2487 89.3555 88.0303 83.525 88.0103 76.3597C87.9902 69.1944 82.1761 63.3963 75.0108 63.396C71.5903 63.3991 68.3106 64.7585 65.8908 67.176L33.8108 50.276L33.8828 49.8356C34.0747 48.5116 34.0507 47.1642 33.8108 45.846L65.9408 28.916L66.185 29.1478C70.6221 33.253 77.3266 33.764 82.3428 30.3379C87.4519 26.8484 89.3938 20.2417 86.9855 14.5426ZM71.2484 72.9334C72.7008 71.4491 74.907 70.9913 76.8301 71.7754C78.7531 72.5595 80.0103 74.4293 80.0108 76.506C80.0386 79.2968 77.8015 81.5831 75.0108 81.616C72.9346 81.6607 71.0378 80.4445 70.2121 78.539C69.3864 76.6335 69.796 74.4178 71.2484 72.9334ZM21.0108 43.116C18.2494 43.116 16.0108 45.3546 16.0108 48.116C16.0108 50.8775 18.2494 53.116 21.0108 53.116C23.7722 53.116 26.0108 50.8775 26.0108 48.116C26.0108 45.3546 23.7722 43.116 21.0108 43.116ZM70.0108 19.616C70.0108 16.8546 72.2494 14.616 75.0108 14.616C77.7722 14.616 80.0108 16.8546 80.0108 19.616C80.0108 22.3775 77.7722 24.616 75.0108 24.616C72.2494 24.616 70.0108 22.3775 70.0108 19.616Z" fill="white" fill-opacity="0.2"/>
</svg>
