<svg width="28" height="28" viewBox="0 0 28 28" xmlns="http://www.w3.org/2000/svg">
    <g fill="none" fill-rule="evenodd">
        <path d="M0 28h28V0H0z"/>
        <g fill="#FFF">
            <path d="M22.636 4H5.363C4.61 4 4 4.611 4 5.364v17.272C4 23.389 4.61 24 5.363 24h17.273C23.39 24 24 23.389 24 22.636V5.364C24 4.611 23.39 4 22.636 4m0 .909c.251 0 .455.204.455.455v17.272a.455.455 0 0 1-.455.455H5.363a.455.455 0 0 1-.454-.455V5.364c0-.251.204-.455.454-.455h17.273"/>
            <path d="M7.456 6.92a.545.545 0 1 1-1.09 0 .545.545 0 0 1 1.09 0M21.632 6.92a.545.545 0 1 1-1.09 0 .545.545 0 0 1 1.09 0M19.27 6.92a.545.545 0 1 1-1.09 0 .545.545 0 0 1 1.09 0M16.907 6.92a.545.545 0 1 1-1.09 0 .545.545 0 0 1 1.09 0M14.544 6.92a.545.545 0 1 1-1.09 0 .545.545 0 0 1 1.09 0M12.181 6.92a.545.545 0 1 1-1.09 0 .545.545 0 0 1 1.09 0M9.819 6.92a.545.545 0 1 1-1.09 0 .545.545 0 0 1 1.09 0M7.456 9.28a.545.545 0 1 1-1.09 0 .545.545 0 0 1 1.09 0M21.632 9.28a.545.545 0 1 1-1.09 0 .545.545 0 0 1 1.09 0M19.27 9.28a.545.545 0 1 1-1.09 0 .545.545 0 0 1 1.09 0M16.907 9.28a.545.545 0 1 1-1.09 0 .545.545 0 0 1 1.09 0M14.544 9.28a.545.545 0 1 1-1.09 0 .545.545 0 0 1 1.09 0M12.181 9.28a.545.545 0 1 1-1.09 0 .545.545 0 0 1 1.09 0M9.819 9.28a.545.545 0 1 1-1.09 0 .545.545 0 0 1 1.09 0M7.456 11.639a.545.545 0 1 1-1.09 0 .545.545 0 0 1 1.09 0M21.632 11.639a.545.545 0 1 1-1.09 0 .545.545 0 0 1 1.09 0M19.27 11.639a.545.545 0 1 1-1.09 0 .545.545 0 0 1 1.09 0M9.819 11.639a.545.545 0 1 1-1.09 0 .545.545 0 0 1 1.09 0M7.456 13.998a.545.545 0 1 1-1.09 0 .545.545 0 0 1 1.09 0M21.632 13.998a.545.545 0 1 1-1.09 0 .545.545 0 0 1 1.09 0M19.27 13.998a.545.545 0 1 1-1.09 0 .545.545 0 0 1 1.09 0M9.819 13.998a.545.545 0 1 1-1.09 0 .545.545 0 0 1 1.09 0M7.456 16.356a.545.545 0 1 1-1.09 0 .545.545 0 0 1 1.09 0M21.632 16.356a.545.545 0 1 1-1.09 0 .545.545 0 0 1 1.09 0M19.27 16.356a.545.545 0 1 1-1.09 0 .545.545 0 0 1 1.09 0M9.819 16.356a.545.545 0 1 1-1.09 0 .545.545 0 0 1 1.09 0M7.456 18.715a.545.545 0 1 1-1.09 0 .545.545 0 0 1 1.09 0M21.632 18.715a.545.545 0 1 1-1.09 0 .545.545 0 0 1 1.09 0M19.27 18.715a.545.545 0 1 1-1.09 0 .545.545 0 0 1 1.09 0M16.907 18.715a.545.545 0 1 1-1.09 0 .545.545 0 0 1 1.09 0M14.544 18.715a.545.545 0 1 1-1.09 0 .545.545 0 0 1 1.09 0M12.181 18.715a.545.545 0 1 1-1.09 0 .545.545 0 0 1 1.09 0M9.819 18.715a.545.545 0 1 1-1.09 0 .545.545 0 0 1 1.09 0M7.456 21.074a.545.545 0 1 1-1.09 0 .545.545 0 0 1 1.09 0M21.632 21.074a.545.545 0 1 1-1.09 0 .545.545 0 0 1 1.09 0M19.27 21.074a.545.545 0 1 1-1.09 0 .545.545 0 0 1 1.09 0M16.907 21.074a.545.545 0 1 1-1.09 0 .545.545 0 0 1 1.09 0M14.544 21.074a.545.545 0 1 1-1.09 0 .545.545 0 0 1 1.09 0M12.181 21.074a.545.545 0 1 1-1.09 0 .545.545 0 0 1 1.09 0M9.819 21.074a.545.545 0 1 1-1.09 0 .545.545 0 0 1 1.09 0M15.727 12.82a.545.545 0 1 1-1.09 0 .545.545 0 0 1 1.09 0M13.364 12.82a.545.545 0 1 1-1.09 0 .545.545 0 0 1 1.09 0M15.727 15.18a.545.545 0 1 1-1.09 0 .545.545 0 0 1 1.09 0M13.364 15.18a.545.545 0 1 1-1.09 0 .545.545 0 0 1 1.09 0"/>
        </g>
    </g>
</svg>
