<svg width="50" height="50" viewBox="0 0 50 50" xmlns="http://www.w3.org/2000/svg">
    <g fill="none" fill-rule="evenodd">
        <path fill="#FFF" d="M-1251-28H189v167h-1440z"/>
        <path fill="#FFF" d="M-1251-28H189v167h-1440z"/>
        <path d="M3.125 46.875h43.75V3.125H3.125z"/>
        <g fill="#AAA">
            <path d="M38.301 9.375H11.7a2.324 2.324 0 0 0-2.325 2.323v26.604a2.324 2.324 0 0 0 2.325 2.323H38.3a2.324 2.324 0 0 0 2.324-2.323V11.698A2.324 2.324 0 0 0 38.3 9.375m0 1.563c.42 0 .761.342.761.76v26.604c0 .418-.34.76-.76.76H11.7a.763.763 0 0 1-.763-.76V11.698c0-.418.342-.76.763-.76H38.3"/>
            <path d="M30.015 13.514h-7.382a.484.484 0 0 0-.462.346l-3.972 13.237c-.092.31.14.622.464.622h3.611v8.283c0 .3.242.484.49.484.15 0 .302-.07.402-.225l8.578-13.481a.483.483 0 0 0-.407-.742h-4.802l3.913-7.824a.484.484 0 0 0-.433-.7M28.9 14.686l-3.413 6.827-.848 1.697h5.443l-6.637 10.428v-7.091H19.588l3.558-11.86H28.9"/>
        </g>
    </g>
</svg>
