<svg width="50" height="50" viewBox="0 0 50 50" xmlns="http://www.w3.org/2000/svg">
    <g fill="none" fill-rule="evenodd">
        <path fill="#FFF" d="M-779-28H661v167H-779z"/>
        <path fill="#FFF" d="M-779-28H661v167H-779z"/>
        <path d="M3.125 46.875h43.75V3.125H3.125z"/>
        <path d="M38.494 9.375H11.505a2.13 2.13 0 0 0-2.13 2.131v26.988a2.13 2.13 0 0 0 2.13 2.131h26.99a2.132 2.132 0 0 0 2.13-2.131V11.506a2.132 2.132 0 0 0-2.13-2.131m0 1.42c.392 0 .71.32.71.711v26.988c0 .392-.318.71-.71.71h-26.99a.711.711 0 0 1-.71-.71V11.506c0-.392.32-.71.71-.71h26.99" fill="#000"/>
        <path d="M3.125 46.875h43.75V3.125H3.125z"/>
        <path d="M13.353 34.614a.852.852 0 1 1 0 1.703.852.852 0 0 1 0-1.703zm22.15 0a.852.852 0 1 1 0 1.703.852.852 0 0 1 0-1.703zm-3.692 0a.852.852 0 1 1 0 1.703.852.852 0 0 1 0-1.703zm-3.691 0a.852.852 0 1 1 0 1.703.852.852 0 0 1 0-1.703zm-3.692 0a.852.852 0 1 1 0 1.703.852.852 0 0 1 0-1.703zm-3.692 0a.852.852 0 1 1 0 1.703.852.852 0 0 1 0-1.703zm-3.691 0a.852.852 0 1 1 0 1.703.852.852 0 0 1 0-1.703zm-3.692-3.685a.852.852 0 1 1 0 1.703.852.852 0 0 1 0-1.703zm22.15 0a.852.852 0 1 1 0 1.703.852.852 0 0 1 0-1.703zm-3.692 0a.852.852 0 1 1 0 1.703.852.852 0 0 1 0-1.703zm-3.691 0a.852.852 0 1 1 0 1.703.852.852 0 0 1 0-1.703zm-3.692 0a.852.852 0 1 1 0 1.703.852.852 0 0 1 0-1.703zm-3.692 0a.852.852 0 1 1 0 1.703.852.852 0 0 1 0-1.703zm-3.691 0a.852.852 0 1 1 0 1.703.852.852 0 0 1 0-1.703zm0-3.686a.852.852 0 1 1 0 1.703.852.852 0 0 1 0-1.703zm-3.692 0a.852.852 0 1 1 0 1.703.852.852 0 0 1 0-1.703zm22.15 0a.852.852 0 1 1 0 1.703.852.852 0 0 1 0-1.703zm-3.692 0a.852.852 0 1 1 0 1.703.852.852 0 0 1 0-1.703zm0-3.686a.852.852 0 1 1 0 1.703.852.852 0 0 1 0-1.703zm-18.458 0a.852.852 0 1 1 0 1.703.852.852 0 0 1 0-1.703zm22.15 0a.852.852 0 1 1 0 1.703.852.852 0 0 1 0-1.703zm-18.458 0a.852.852 0 1 1 0 1.703.852.852 0 0 1 0-1.703zm-3.692-3.685a.852.852 0 1 1 0 1.703.852.852 0 0 1 0-1.703zm18.458 0a.852.852 0 1 1 0 1.703.852.852 0 0 1 0-1.703zm3.692 0a.852.852 0 1 1 0 1.703.852.852 0 0 1 0-1.703zm-18.458 0a.852.852 0 1 1 0 1.703.852.852 0 0 1 0-1.703zm-3.692-3.686a.852.852 0 1 1 0 1.703.852.852 0 0 1 0-1.703zm22.15 0a.852.852 0 1 1 0 1.703.852.852 0 0 1 0-1.703zm-3.692 0a.852.852 0 1 1 0 1.703.852.852 0 0 1 0-1.703zm-3.691 0a.852.852 0 1 1 0 1.703.852.852 0 0 1 0-1.703zm-3.692 0a.852.852 0 1 1 0 1.703.852.852 0 0 1 0-1.703zm-3.692 0a.852.852 0 1 1 0 1.703.852.852 0 0 1 0-1.703zm-3.691 0a.852.852 0 1 1 0 1.703.852.852 0 0 1 0-1.703zM13.353 12.5a.852.852 0 1 1 0 1.703.852.852 0 0 1 0-1.703zm22.15 0a.852.852 0 1 1 0 1.703.852.852 0 0 1 0-1.703zm-3.692 0a.852.852 0 1 1 0 1.703.852.852 0 0 1 0-1.703zm-3.691 0a.852.852 0 1 1 0 1.703.852.852 0 0 1 0-1.703zm-3.692 0a.852.852 0 1 1 0 1.703.852.852 0 0 1 0-1.703zm-3.692 0a.852.852 0 1 1 0 1.703.852.852 0 0 1 0-1.703zm-3.691 0a.852.852 0 1 1 0 1.703.852.852 0 0 1 0-1.703z" fill="#000"/>
    </g>
</svg>
