<svg width="24" height="24" viewBox="0 0 24 24" xmlns="http://www.w3.org/2000/svg">
    <path d="M6.125 2.875V4.5h11.75V2.875h1.25V4.5h4.625v17.25H.25V4.5h4.625V2.875h1.25zM4.875 5.75H1.5V20.5h21V5.75h-3.375v1.625h-1.25V5.75H6.125v1.625h-1.25V5.75zM12 14.375a1.125 1.125 0 1 1 0 2.25 1.125 1.125 0 0 1 0-2.25zm-4.5 0a1.125 1.125 0 1 1 0 2.25 1.125 1.125 0 0 1 0-2.25zm9 0a1.125 1.125 0 1 1 0 2.25 1.125 1.125 0 0 1 0-2.25zm0-4a1.125 1.125 0 1 1 0 2.25 1.125 1.125 0 0 1 0-2.25zm-4.5 0a1.125 1.125 0 1 1 0 2.25 1.125 1.125 0 0 1 0-2.25zm-4.5 0a1.125 1.125 0 1 1 0 2.25 1.125 1.125 0 0 1 0-2.25z" stroke="#000" stroke-width=".5" fill="#000" fill-rule="nonzero"/>
</svg>
