<svg width="96" height="96" viewBox="0 0 96 96" fill="none" xmlns="http://www.w3.org/2000/svg">
<path fill-rule="evenodd" clip-rule="evenodd" d="M52.0406 63.04L52.0415 6H44.0415L44.0406 63.125L23.9014 42.2245L18.1406 47.7755L48.0011 78.7648L77.8605 47.7754L72.0996 42.2245L52.0406 63.04ZM75.0205 90V82H21.0615V90H75.0205Z" fill="black"/>
<path fill-rule="evenodd" clip-rule="evenodd" d="M52.0406 63.04L52.0415 6H44.0415L44.0406 63.125L23.9014 42.2245L18.1406 47.7755L48.0011 78.7648L77.8605 47.7754L72.0996 42.2245L52.0406 63.04ZM75.0205 90V82H21.0615V90H75.0205Z" fill="black" fill-opacity="0.2"/>
<path fill-rule="evenodd" clip-rule="evenodd" d="M52.0406 63.04L52.0415 6H44.0415L44.0406 63.125L23.9014 42.2245L18.1406 47.7755L48.0011 78.7648L77.8605 47.7754L72.0996 42.2245L52.0406 63.04ZM75.0205 90V82H21.0615V90H75.0205Z" fill="black" fill-opacity="0.2"/>
</svg>
