<svg width="20" height="20" xmlns="http://www.w3.org/2000/svg">
    <path d="M15.088 1.43a2.708 2.708 0 1 1-1.3 4.643l-.05-.049-6.695 3.527c.05.275.055.556.015.832l-.015.091 6.684 3.521a2.692 2.692 0 0 1 1.9-.787 2.708 2.708 0 1 1-2.709 2.73c.001-.123.01-.247.028-.37l.014-.092-6.694-3.527a2.708 2.708 0 1 1-.05-3.921l.05.048L12.96 4.55a2.708 2.708 0 0 1 2.127-3.12zm.918 13.523a1.065 1.065 0 1 0-.38 2.05 1.054 1.054 0 0 0 1.042-1.064c0-.433-.262-.822-.662-.986zm-11.63-5.97a1.042 1.042 0 1 0 0 2.083 1.042 1.042 0 0 0 0-2.083zm11.25-5.938a1.042 1.042 0 1 0 0 2.084 1.042 1.042 0 0 0 0-2.084z" fill="#006FF2" fill-rule="evenodd"/>
</svg>
