<svg width="16" height="16" viewBox="0 0 16 16" xmlns="http://www.w3.org/2000/svg">
    <path d="m6.198 15.833-.391-2.467a5.247 5.247 0 0 1-.784-.372 5.382 5.382 0 0 1-.724-.49l-2.311 1.058L.167 10.35l2.115-1.547a2.328 2.328 0 0 1-.05-.402 9.347 9.347 0 0 1 0-.802c.007-.15.024-.284.05-.402L.167 5.65l1.82-3.212L4.3 3.496c.209-.17.45-.333.724-.49.275-.156.536-.274.784-.352L6.198.167h3.604l.391 2.467c.248.092.513.212.793.362.281.15.52.317.715.5l2.311-1.058 1.821 3.212-2.115 1.508c.026.13.043.27.05.421a9.728 9.728 0 0 1 0 .832c-.007.144-.024.28-.05.412l2.115 1.527-1.82 3.212-2.312-1.058c-.209.17-.447.336-.715.5a3.413 3.413 0 0 1-.793.362l-.391 2.467H6.198zM8 10.546c.705 0 1.306-.248 1.802-.744A2.454 2.454 0 0 0 10.546 8c0-.705-.248-1.306-.744-1.802A2.454 2.454 0 0 0 8 5.454c-.705 0-1.306.248-1.802.744A2.454 2.454 0 0 0 5.454 8c0 .705.248 1.306.744 1.802A2.454 2.454 0 0 0 8 10.546zM8 9.37a1.32 1.32 0 0 1-.97-.402A1.32 1.32 0 0 1 6.63 8c0-.379.133-.702.4-.97a1.32 1.32 0 0 1 .97-.4c.379 0 .702.133.97.4.267.268.4.591.4.97s-.133.702-.4.97a1.32 1.32 0 0 1-.97.4zm-.862 5.287h1.724l.274-2.193c.43-.104.839-.268 1.224-.49a5.02 5.02 0 0 0 1.048-.802l2.075.9.784-1.41-1.841-1.35c.052-.223.094-.442.127-.657.033-.215.05-.434.05-.656 0-.222-.014-.44-.04-.656a4.052 4.052 0 0 0-.137-.656l1.84-1.351-.783-1.41-2.075.9c-.3-.339-.64-.623-1.019-.851a3.303 3.303 0 0 0-1.253-.441l-.274-2.193H7.138l-.274 2.193a4.15 4.15 0 0 0-1.243.47 4.32 4.32 0 0 0-1.028.823l-2.076-.901-.784 1.41 1.841 1.35c-.052.223-.094.442-.127.657a4.373 4.373 0 0 0 0 1.312c.033.215.075.434.127.656l-1.84 1.351.783 1.41 2.076-.9a5.02 5.02 0 0 0 1.047.802c.385.222.793.386 1.224.49l.274 2.193z" fill="#000" fill-rule="nonzero"/>
</svg>
