<svg width="28" height="28" viewBox="0 0 28 28" xmlns="http://www.w3.org/2000/svg">
    <g fill="none" fill-rule="evenodd">
        <path d="M0 28h28V0H0z"/>
        <path d="M23 4H5a3 3 0 0 0-3 3v14a3 3 0 0 0 3 3h18a3 3 0 0 0 3-3V7a3 3 0 0 0-3-3m0 1c1.103 0 2 .897 2 2v14c0 1.103-.897 2-2 2H5c-1.103 0-2-.897-2-2V7c0-1.103.897-2 2-2h18" fill="#FFF"/>
        <path d="M26 7.85h-3.347a.864.864 0 0 0-.865.865v10.272c0 .477.387.864.865.864H26v-12zm-.75.75v10.5h-2.597a.115.115 0 0 1-.115-.113V8.715c0-.063.052-.114.115-.114h2.597z" fill="#FFF"/>
        <path stroke="#FFF" stroke-width=".75" d="M23.493 10.893h2.306M23.493 13.851h2.306M23.493 16.808h2.306"/>
        <path d="M23.642 6.394a.65.65 0 1 1-1.3 0 .65.65 0 0 1 1.3 0M23.642 21.308a.65.65 0 1 1-1.3 0 .65.65 0 0 1 1.3 0M5.658 6.394a.65.65 0 1 1-1.3 0 .65.65 0 0 1 1.3 0M5.658 21.308a.65.65 0 1 1-1.3 0 .65.65 0 0 1 1.3 0M16.5 9.406h-7a1.5 1.5 0 0 0-1.5 1.5v5.89a1.5 1.5 0 0 0 1.5 1.5h7a1.5 1.5 0 0 0 1.5-1.5v-5.89a1.5 1.5 0 0 0-1.5-1.5m0 .75a.75.75 0 0 1 .75.75v5.89a.75.75 0 0 1-.75.75h-7a.75.75 0 0 1-.75-.75v-5.89a.75.75 0 0 1 .75-.75h7" fill="#FFF"/>
    </g>
</svg>
