<svg width="96" height="96" xmlns="http://www.w3.org/2000/svg">
    <g fill="#000" fill-rule="evenodd">
        <circle opacity=".07" cx="48" cy="48" r="48"/>
        <path d="M43.296 27c.678.002 1.425.008 2.256.018 4.145.049 5.383.106 5.936.274 2.309.7 4.332 1.95 6.146 3.798 2.545 2.593 3.834 5.466 3.838 8.561.003 1.62.263 2.216 1.206 2.769.594.348.805.385 2.689.468 1.124.05 2.178.164 2.343.253.535.291 1.003.988 1.169 1.738.08.366.12 1.495.122 3.668v.565a374.85 374.85 0 0 1-.015 2.715c-.042 4.855-.065 5.984-.233 6.802l-.025.118-.043.174a9.993 9.993 0 0 1-.048.177c-.663 2.379-1.678 4.171-3.3 5.827-2.24 2.289-4.63 3.51-7.679 3.926-.821.112-5.019.158-9.39.149l-.875-.002c-4.672-.018-9.298-.096-9.992-.221-2.915-.527-5.831-2.39-7.777-4.972-1.021-1.355-1.517-2.31-2.008-3.867-.472-1.497-.611-2.685-.618-7.869v-.977c.001-1.135.007-2.44.017-3.951.047-7.595.086-8.917.287-9.742 1.07-4.392 4.004-7.817 8.087-9.443 1.79-.713 3.077-.936 6.942-.955zm7.74 26.229h-3.46l-.376.001h-.72c-6.49.01-6.989.06-7.575.57l-.063.057c-.527.476-.87 1.416-.768 2.1.107.718.73 1.527 1.4 1.819.254.11 1.37.205 4.736.21h.536c.923-.002 1.999-.009 3.25-.024l7.263-.085 1.394-.226c1.356-.768 1.593-2.638.468-3.688l-.107-.1-.069-.061a2.094 2.094 0 0 0-.136-.11l-.071-.05c-.538-.35-1.433-.407-5.703-.413zM45.05 38.145h-1.458c-4.005.004-4.22.061-4.92.767-1.145 1.156-.563 3.391.996 3.82.044.012.124.024.238.034l.196.015c.767.05 2.397.077 4.333.066 4.031-.024 4.286-.04 4.713-.311.795-.504 1.152-1.13 1.152-2.024 0-.99-.38-1.612-1.253-2.053a8.543 8.543 0 0 0-.045-.023l-.085-.041c-.476-.223-.855-.248-3.867-.25z" fill-rule="nonzero"/>
    </g>
</svg>
