<svg width="50" height="50" viewBox="0 0 50 50" xmlns="http://www.w3.org/2000/svg">
    <g fill="none" fill-rule="evenodd">
        <path fill="#FFF" d="M-1015-28H425v167h-1440z"/>
        <path fill="#FFF" d="M-1015-28H425v167h-1440z"/>
        <path d="M3.125 46.875h43.75V3.125H3.125z"/>
        <path d="M37.394 12.216H12.605a3.23 3.23 0 0 0-3.23 3.231v19.106a3.23 3.23 0 0 0 3.23 3.232h24.79a3.231 3.231 0 0 0 3.23-3.232V15.447a3.231 3.231 0 0 0-3.23-3.231m0 1.562c.92 0 1.668.749 1.668 1.67v19.105a1.67 1.67 0 0 1-1.669 1.67H12.605a1.67 1.67 0 0 1-1.667-1.67V15.447c0-.92.749-1.669 1.667-1.669h24.79" fill="#000"/>
        <path d="M13.895 21.707v-3.05c0-.955.773-1.728 1.728-1.728h3.437M36.105 28.293v3.05c0 .955-.773 1.728-1.728 1.728H30.94" stroke="#000" stroke-width="1.155" stroke-linecap="round" stroke-linejoin="round"/>
    </g>
</svg>
