<svg xmlns="http://www.w3.org/2000/svg" width="18" height="18" viewBox="0 0 18 18">
    <g fill="none" fill-rule="evenodd">
        <g>
            <g>
                <g>
                    <g>
                        <g>
                            <path d="M0 0H18V18H0z" transform="translate(-262.000000, -1243.000000) translate(0.000000, 1217.000000) translate(32.000000, 23.000000) translate(230.000000, 0.000000) translate(0.000000, 3.000000)"/>
                            <path fill="#8F8F8F" fill-rule="nonzero" d="M10.943 1.757c1.55.416 2.892 1.3 3.872 2.505V2.627h1.5v4.125h-4.126v-1.5h1.497c-.787-.986-1.872-1.708-3.131-2.046C7.354 2.35 4.064 4.248 3.206 7.45c-.857 3.2 1.042 6.49 4.243 7.348 3.169.85 6.425-1.004 7.322-4.147l.026-.095 1.45.388c-1.073 4.001-5.185 6.375-9.186 5.303S.685 11.062 1.757 7.061 6.942.685 10.943 1.757z" transform="translate(-262.000000, -1243.000000) translate(0.000000, 1217.000000) translate(32.000000, 23.000000) translate(230.000000, 0.000000) translate(0.000000, 3.000000)"/>
                        </g>
                    </g>
                </g>
            </g>
        </g>
    </g>
</svg>
