<svg width="32" height="32" viewBox="0 0 32 32" xmlns="http://www.w3.org/2000/svg">
    <g fill="none" fill-rule="evenodd">

        <path d="M12.7 9.45v1.635h6.6V9.45h1.2v1.635H22c.29 0 .525.224.525.499v9.667a.513.513 0 0 1-.526.499H10.001a.513.513 0 0 1-.526-.499v-9.667c0-.275.236-.499.526-.499H11.5V9.45h1.2zm.546 8.25h-1.092a.429.429 0 0 0-.429.429v1.092c0 .237.192.429.429.429h1.092a.429.429 0 0 0 .429-.429v-1.092a.429.429 0 0 0-.429-.429zm3.3 0h-1.092a.429.429 0 0 0-.429.429v1.092c0 .237.192.429.429.429h1.092a.429.429 0 0 0 .429-.429v-1.092a.429.429 0 0 0-.429-.429zm3.3 0h-1.092a.429.429 0 0 0-.429.429v1.092c0 .237.192.429.429.429h1.092a.429.429 0 0 0 .429-.429v-1.092a.429.429 0 0 0-.429-.429zm-6.6-3.6h-1.092a.429.429 0 0 0-.429.429v1.092c0 .237.192.429.429.429h1.092a.429.429 0 0 0 .429-.429v-1.092a.429.429 0 0 0-.429-.429zm3.3 0h-1.092a.429.429 0 0 0-.429.429v1.092c0 .237.192.429.429.429h1.092a.429.429 0 0 0 .429-.429v-1.092a.429.429 0 0 0-.429-.429zm3.3 0h-1.092a.429.429 0 0 0-.429.429v1.092c0 .237.192.429.429.429h1.092a.429.429 0 0 0 .429-.429v-1.092a.429.429 0 0 0-.429-.429z" fill="#000" fill-rule="nonzero" />
    </g>
</svg>