<svg width="50" height="50" viewBox="0 0 50 50" xmlns="http://www.w3.org/2000/svg">
    <g fill="none" fill-rule="evenodd">
        <path fill="#FFF" d="M-258-28h1440v167H-258z"/>
        <path fill="#FFF" d="M-258-28h1440v167H-258z"/>
        <path d="M39.063 9.375H10.936a4.687 4.687 0 0 0-4.687 4.688v21.874a4.687 4.687 0 0 0 4.688 4.688h28.124a4.687 4.687 0 0 0 4.688-4.688V14.064a4.687 4.687 0 0 0-4.688-4.688m0 1.563a3.128 3.128 0 0 1 3.126 3.124v21.876a3.128 3.128 0 0 1-3.126 3.124H10.939a3.128 3.128 0 0 1-3.126-3.124V14.061a3.128 3.128 0 0 1 3.125-3.124h28.126" fill="#AAA"/>
        <path d="M43.75 15.392h-5.23a1.35 1.35 0 0 0-1.351 1.35v16.05c0 .745.604 1.35 1.351 1.35h5.23v-18.75zm-1.172 1.172V32.97H38.52a.18.18 0 0 1-.18-.178v-16.05a.18.18 0 0 1 .18-.178h4.058z" fill="#AAA"/>
        <path stroke="#AAA" stroke-width="1.155" d="M39.833 20.146h3.603M39.833 24.767h3.603M39.833 29.388h3.603"/>
        <path d="M40.065 13.115a1.016 1.016 0 1 1-2.031 0 1.016 1.016 0 0 1 2.031 0M40.065 36.418a1.016 1.016 0 1 1-2.031 0 1.016 1.016 0 0 1 2.031 0M11.966 13.115a1.016 1.016 0 1 1-2.031 0 1.016 1.016 0 0 1 2.031 0M11.966 36.418a1.016 1.016 0 1 1-2.031 0 1.016 1.016 0 0 1 2.031 0M28.906 17.822H17.97a2.345 2.345 0 0 0-2.344 2.344v9.202a2.345 2.345 0 0 0 2.344 2.343h10.937a2.345 2.345 0 0 0 2.344-2.343v-9.202a2.345 2.345 0 0 0-2.344-2.344m0 1.172c.647 0 1.172.525 1.172 1.172v9.202c0 .645-.525 1.172-1.172 1.172H17.97a1.173 1.173 0 0 1-1.172-1.172v-9.202c0-.647.525-1.172 1.172-1.172h10.937" fill="#AAA"/>
    </g>
</svg>
