<svg width="28" height="28" viewBox="0 0 28 28" xmlns="http://www.w3.org/2000/svg">
    <g fill="none" fill-rule="evenodd">
        <path d="M0 28h28V0H0z"/>
        <path stroke="#FFF" stroke-width=".75" stroke-linecap="round" stroke-linejoin="round" d="M14 11.883v11.372M14.99 10.903a.986.986 0 0 1-.99.98.985.985 0 0 1-.99-.98c0-.542.443-.981.99-.981.547 0 .99.439.99.98zM19.505 11.883a.986.986 0 0 1-.991.981.985.985 0 0 1-.99-.98c0-.543.443-.982.99-.982.547 0 .99.44.99.981z"/>
        <path stroke="#FFF" stroke-width=".75" d="M18.514 12.864v1.961l-1.612 1.069v6.649"/>
        <path d="M10.476 11.883a.986.986 0 0 1-.99.981.985.985 0 0 1-.99-.98c0-.543.442-.982.99-.982.546 0 .99.44.99.981z" stroke="#FFF" stroke-width=".75" stroke-linecap="round" stroke-linejoin="round"/>
        <path stroke="#FFF" stroke-width=".75" d="M9.486 12.864v1.961l1.612 1.069v6.649"/>
        <path d="M14 3.579c-.138 0-.275.02-.408.064L6.013 6.068C5.412 6.26 5 6.85 5 7.52v4.632c0 6.41 3.64 9.327 8.316 12.082a1.344 1.344 0 0 0 1.368 0C19.36 21.479 23 18.563 23 12.152V7.52c0-.67-.412-1.26-1.013-1.452l-7.579-2.425A1.322 1.322 0 0 0 14 3.579m0 1a.37.37 0 0 1 .104.016l7.579 2.426c.186.059.317.265.317.499v4.632c0 5.557-2.75 8.23-7.824 11.22a.337.337 0 0 1-.352 0C8.75 20.382 6 17.709 6 12.152V7.52c0-.234.131-.44.317-.5l7.579-2.425A.37.37 0 0 1 14 4.579" fill="#FFF"/>
    </g>
</svg>
