<svg width="96" height="96" viewBox="0 0 96 96" fill="none" xmlns="http://www.w3.org/2000/svg">
<path d="M79.1719 11.1719L48.0019 42.3419L16.8319 11.1719L11.1719 16.8319L42.3419 48.0019L11.1719 79.1719L16.8319 84.8319L48.0019 53.6619L79.1719 84.8319L84.8319 79.1719L53.6619 48.0019L84.8319 16.8319L79.1719 11.1719Z" fill="black"/>
<path d="M79.1719 11.1719L48.0019 42.3419L16.8319 11.1719L11.1719 16.8319L42.3419 48.0019L11.1719 79.1719L16.8319 84.8319L48.0019 53.6619L79.1719 84.8319L84.8319 79.1719L53.6619 48.0019L84.8319 16.8319L79.1719 11.1719Z" fill="black" fill-opacity="0.2"/>
<path d="M79.1719 11.1719L48.0019 42.3419L16.8319 11.1719L11.1719 16.8319L42.3419 48.0019L11.1719 79.1719L16.8319 84.8319L48.0019 53.6619L79.1719 84.8319L84.8319 79.1719L53.6619 48.0019L84.8319 16.8319L79.1719 11.1719Z" fill="black" fill-opacity="0.2"/>
</svg>
