<svg width="28" height="28" viewBox="0 0 28 28" xmlns="http://www.w3.org/2000/svg">
    <g fill="none" fill-rule="evenodd">
        <path d="M0 28h28V0H0z"/>
        <path d="M14 10.106a3.894 3.894 0 1 0 2.754 6.648A3.894 3.894 0 0 0 14 10.106m0 .75c.84 0 1.63.327 2.223.92.594.595.921 1.385.921 2.224 0 .84-.327 1.63-.921 2.224a3.12 3.12 0 0 1-2.223.92 3.12 3.12 0 0 1-2.223-.92A3.125 3.125 0 0 1 10.856 14c0-.84.327-1.63.921-2.223A3.12 3.12 0 0 1 14 10.856" fill="#FFF"/>
        <path fill="#FFF" d="m14.628 12.493-.377-.377.377-.376.377.376zM15.256 13.121l-.377-.377.377-.376.377.376z"/>
        <path fill="#FFF" d="m14.628 12.493-.377-.377.377-.376.377.376zM15.256 13.121l-.377-.377.377-.376.377.376zM15.884 13.749l-.377-.377.377-.376.377.376z"/>
        <path fill="#FFF" d="m14.628 12.493-.377-.377.377-.376.377.376zM15.256 13.121l-.377-.377.377-.376.377.376zM15.884 13.749l-.377-.377.377-.376.377.376z"/>
        <path fill="#FFF" d="m15.256 13.121-.377-.377.377-.376.377.376zM15.884 13.749l-.377-.377.377-.376.377.376zM13.372 12.493l-.377-.377.377-.376.377.376zM14 13.121l-.377-.377.377-.376.377.376zM14.628 13.749l-.377-.377.377-.376.377.376z"/>
        <path fill="#FFF" d="m14 13.121-.377-.377.377-.376.377.376zM14.628 13.749l-.377-.377.377-.376.377.376zM15.256 14.377 14.879 14l.377-.376.377.376z"/>
        <path fill="#FFF" d="m14 13.121-.377-.377.377-.376.377.376zM14.628 13.749l-.377-.377.377-.376.377.376zM15.256 14.377 14.879 14l.377-.376.377.376z"/>
        <path fill="#FFF" d="m14.628 13.749-.377-.377.377-.376.377.376zM15.256 14.377 14.879 14l.377-.376.377.376zM15.884 15.005l-.377-.377.377-.376.377.376zM12.744 13.121l-.377-.377.377-.376.377.376zM13.372 13.749l-.377-.377.377-.376.377.376zM14 14.377 13.623 14l.377-.376.377.376z"/>
        <path fill="#FFF" d="m13.372 13.749-.377-.377.377-.376.377.376zM14 14.377 13.623 14l.377-.376.377.376zM14.628 15.005l-.377-.377.377-.376.377.376z"/>
        <path fill="#FFF" d="m13.372 13.749-.377-.377.377-.376.377.376zM14 14.377 13.623 14l.377-.376.377.376zM14.628 15.005l-.377-.377.377-.376.377.376z"/>
        <path fill="#FFF" d="M14 14.377 13.623 14l.377-.376.377.376zM14.628 15.005l-.377-.377.377-.376.377.376zM15.256 15.632l-.377-.377.377-.376.377.376zM12.116 13.749l-.377-.377.377-.376.377.376zM12.744 14.377 12.367 14l.377-.376.377.376zM13.372 15.005l-.377-.377.377-.376.377.376z"/>
        <path fill="#FFF" d="M12.744 14.377 12.367 14l.377-.376.377.376zM13.372 15.005l-.377-.377.377-.376.377.376zM14 15.632l-.377-.377.377-.376.377.376z"/>
        <path fill="#FFF" d="M12.744 14.377 12.367 14l.377-.376.377.376zM13.372 15.005l-.377-.377.377-.376.377.376zM14 15.632l-.377-.377.377-.376.377.376z"/>
        <path fill="#FFF" d="m13.372 15.005-.377-.377.377-.376.377.376zM14 15.632l-.377-.377.377-.376.377.376zM14.628 16.26l-.377-.377.377-.376.377.376zM12.116 15.005l-.377-.377.377-.376.377.376zM12.744 15.632l-.377-.377.377-.376.377.376z"/>
        <path fill="#FFF" d="m12.116 15.005-.377-.377.377-.376.377.376zM12.744 15.632l-.377-.377.377-.376.377.376zM13.372 16.26l-.377-.377.377-.376.377.376z"/>
        <path fill="#FFF" d="m12.116 15.005-.377-.377.377-.376.377.376zM12.744 15.632l-.377-.377.377-.376.377.376zM13.372 16.26l-.377-.377.377-.376.377.376z"/>
        <path fill="#FFF" d="m12.744 15.632-.377-.377.377-.376.377.376zM13.372 16.26l-.377-.377.377-.376.377.376z"/>
        <path d="M21.873 7.903 19.14 5.989M6.127 7.903c1.341-.94 1.358-.975 2.7-1.914M22.076 18.37l.94-2.787M5.871 16.775l.538 1.595M13.334 21.984h3.684" stroke="#FFF" stroke-width=".5" stroke-dasharray="0.5,0.75"/>
        <path d="M16.683 2.25h-5.29v1.721a1.032 1.032 0 0 0-.487-.134 1.058 1.058 0 0 0 0 2.116c.179 0 .34-.056.487-.134V7.54h1.979a.831.831 0 0 1-.051-.253.85.85 0 1 1 1.7 0 .831.831 0 0 1-.051.253h1.713V2.25zM5.41 24.629h5.29v-1.721c.147.078.308.134.487.134a1.058 1.058 0 0 0 0-2.116c-.18 0-.34.056-.487.134v-1.721H8.72a.831.831 0 0 1 .052.253.85.85 0 1 1-1.7 0c0-.09.025-.171.05-.253H5.41v5.29zM22.265 24.629v-5.29h-1.72c.077-.147.133-.308.133-.487a1.058 1.058 0 0 0-2.116 0c0 .179.056.34.134.487h-1.72v1.979a.831.831 0 0 1 .252-.051.85.85 0 1 1 0 1.7.831.831 0 0 1-.253-.051v1.713h5.29zM2.561 9.114v5.29h1.721a1.032 1.032 0 0 0-.134.487 1.058 1.058 0 0 0 2.116 0c0-.179-.056-.34-.134-.487h1.721v-1.979a.831.831 0 0 1-.253.051.85.85 0 1 1 0-1.7c.09 0 .171.025.253.051V9.114h-5.29zM25.494 9.114h-5.29v1.721a1.032 1.032 0 0 0-.487-.134 1.058 1.058 0 0 0 0 2.116c.179 0 .34-.056.487-.134v1.721h1.979a.831.831 0 0 1-.051-.253.85.85 0 1 1 1.7 0 .831.831 0 0 1-.051.253h1.713v-5.29z" stroke="#FFF" stroke-linecap="round" stroke-linejoin="round"/>
    </g>
</svg>
