<svg width="20" height="20" viewBox="0 0 20 20" xmlns="http://www.w3.org/2000/svg">
    <path d="M8.333 11.458c.115 0 .209.094.209.209V17.5a.208.208 0 0 1-.209.208H2.5a.208.208 0 0 1-.208-.208v-5.833c0-.115.093-.209.208-.209h5.833zm9.167 0c.115 0 .208.094.208.209V17.5a.208.208 0 0 1-.208.208h-5.833a.208.208 0 0 1-.209-.208v-5.833c0-.115.094-.209.209-.209H17.5zM8.333 2.292c.115 0 .209.093.209.208v5.833a.208.208 0 0 1-.209.209H2.5a.208.208 0 0 1-.208-.209V2.5c0-.115.093-.208.208-.208h5.833zm9.167 0c.115 0 .208.093.208.208v5.833a.208.208 0 0 1-.208.209h-5.833a.208.208 0 0 1-.209-.209V2.5c0-.115.094-.208.209-.208H17.5z" fill="#000" fill-rule="nonzero"/>
</svg>
