<svg width="28" height="28" viewBox="0 0 28 28" xmlns="http://www.w3.org/2000/svg">
    <g fill="none" fill-rule="evenodd">
        <path d="M0 28h28V0H0z"/>
        <path d="m19.816 19.183 1.895-1.964a1.425 1.425 0 0 0 0-1.965h0a1.308 1.308 0 0 0-1.895 0l-3.988 4.133a1.167 1.167 0 0 0-.323.81v3.755c0 .302.236.546.527.546h3.851a.537.537 0 0 0 .528-.546v-.598c0-.303.116-.594.323-.808l3.776-3.914c.207-.214.323-.505.323-.809l.223-7.075c-.066-.744-.69-1.3-1.41-1.255h0c-.682.042-1.223.61-1.255 1.317l-.68 4.444M8.296 19.183 6.401 17.22a1.425 1.425 0 0 1 0-1.965h0a1.308 1.308 0 0 1 1.895 0l3.988 4.133c.207.215.323.506.323.81v3.755a.536.536 0 0 1-.527.546H8.23a.537.537 0 0 1-.529-.546v-.598c0-.303-.116-.594-.323-.808l-3.776-3.914a1.163 1.163 0 0 1-.323-.809l-.223-7.075c.066-.744.69-1.3 1.41-1.255h0c.682.042 1.223.61 1.255 1.317l.68 4.444" stroke="#FFF" stroke-linecap="round" stroke-linejoin="round"/>
        <path d="M13.998 5.076a2.594 2.594 0 0 0-2.586 2.602 2.594 2.594 0 0 0 2.586 2.602 2.594 2.594 0 0 0 2.586-2.602 2.594 2.594 0 0 0-2.586-2.602m0 1c.875 0 1.586.72 1.586 1.602 0 .883-.71 1.602-1.586 1.602a1.596 1.596 0 0 1-1.586-1.602c0-.883.711-1.602 1.586-1.602" fill="#FFF"/>
        <path d="M23.357 7.898c-1.888-3.227-5.367-5.4-9.359-5.4s-7.47 2.173-9.359 5.4" stroke="#FFF" stroke-linecap="round" stroke-linejoin="round"/>
        <path d="M15.271 9.98h-2.547a3.658 3.658 0 0 0-3.022 1.604c-.265.388-.24.906.021 1.297.927 1.386 2.49 2.303 4.275 2.303 1.785 0 3.348-.917 4.274-2.303.261-.391.286-.91.022-1.297a3.66 3.66 0 0 0-3.023-1.604m0 1c.877 0 1.698.436 2.196 1.167.023.033.018.112-.026.178a4.143 4.143 0 0 1-3.443 1.859 4.143 4.143 0 0 1-3.443-1.86c-.044-.065-.049-.144-.027-.177a2.658 2.658 0 0 1 2.196-1.167h2.547" fill="#FFF"/>
    </g>
</svg>
