<svg width="32" height="32" xmlns="http://www.w3.org/2000/svg">
    <g fill="#FFF" fill-rule="evenodd">
        <circle opacity=".07" cx="16" cy="16" r="16"/>
        <path d="M16.783 10c1.118.007 5.223.05 6.368.367a2.139 2.139 0 0 1 1.499 1.51c.299 1.102.343 3.185.35 3.894v.333c-.004.49-.038 2.835-.35 4.033a2.139 2.139 0 0 1-1.499 1.51c-.554.148-1.801.233-3.067.283l-.506.019c-1.344.043-2.607.05-2.973.051h-.21c-.752-.002-5.314-.03-6.547-.367a2.139 2.139 0 0 1-1.498-1.51c-.3-1.138-.343-3.354-.35-3.964v-.317c.007-.607.05-2.815.35-3.964a2.183 2.183 0 0 1 1.498-1.525c.555-.147 1.802-.233 3.068-.283l.506-.018c1.176-.039 2.29-.049 2.795-.051zm-1.978 3.43v5.14L19.231 16l-4.426-2.57z" fill-rule="nonzero"/>
    </g>
</svg>
