<svg width="32" height="32" xmlns="http://www.w3.org/2000/svg">
    <g fill="#000" fill-rule="evenodd">
        <circle opacity=".07" cx="16" cy="16" r="16"/>
        <path d="M9.923 17.612a3.162 3.162 0 0 0 0 4.465 3.162 3.162 0 0 0 4.465 0l2.728-2.728a3.162 3.162 0 0 0 0-4.465.526.526 0 1 0-.744.744c.831.83.831 2.146 0 2.977l-2.729 2.728a2.089 2.089 0 0 1-2.976 0 2.089 2.089 0 0 1 0-2.976l2.728-2.73a.526.526 0 1 0-.744-.743l-2.728 2.728zm4.96-4.96a3.162 3.162 0 0 0 0 4.464.526.526 0 1 0 .745-.744 2.089 2.089 0 0 1 0-2.977l2.729-2.728a2.089 2.089 0 0 1 2.976 0c.831.83.831 2.146 0 2.976l-2.728 2.729a.526.526 0 1 0 .744.744l2.728-2.728a3.162 3.162 0 0 0 0-4.465 3.162 3.162 0 0 0-4.465 0l-2.728 2.728z" fill-rule="nonzero"/>
    </g>
</svg>
