<svg width="46" height="46" xmlns="http://www.w3.org/2000/svg">
    <defs>
        <filter color-interpolation-filters="auto" id="a">
            <feColorMatrix in="SourceGraphic" values="0 0 0 0 1.000000 0 0 0 0 1.000000 0 0 0 0 1.000000 0 0 0 1.000000 0"/>
        </filter>
    </defs>
    <g transform="translate(-.002)" filter="url(#a)" fill="none" fill-rule="evenodd">
        <path d="M33.57.719c.895 0 1.627.702 1.675 1.585l.003.092v5.212l.005.09c.056 1.166.283 1.874.809 2.691l.085.13c.136.203 1.064 1.442 1.544 2.13l.116.169A17.886 17.886 0 0 1 40.97 23c0 3.68-1.106 7.1-3.003 9.948l-.223.329-.316.446c-.472.658-1.102 1.503-1.26 1.729l-.02.029c-.557.83-.81 1.522-.884 2.645l-.013.224-.002.48v4.774c0 .894-.703 1.627-1.585 1.675l-.092.002H12.437a1.679 1.679 0 0 1-1.675-1.585l-.003-.092-.001-5.235-.003-.065c-.056-1.167-.283-1.876-.81-2.693l-.085-.13c-.115-.171-.793-1.08-1.29-1.773A17.884 17.884 0 0 1 5.03 23c0-3.92 1.256-7.547 3.387-10.501l1.402-1.922.04-.058c.558-.83.81-1.522.884-2.643l.014-.245.001-.453V2.396c0-.894.703-1.627 1.586-1.675l.092-.002H33.57zm-.7 37.299a17.885 17.885 0 0 1-9.87 2.95c-3.642 0-7.03-1.083-9.862-2.945l.014.25.003.456v4.156h19.697l.002-4.478.002-.135.014-.254zM23 7.428a15.55 15.55 0 0 0-12.493 6.274l-.252.356-.095.139-.005-.003A15.5 15.5 0 0 0 7.427 23a15.5 15.5 0 0 0 2.728 8.807l.005-.004.094.139c.07.102.156.222.25.353A15.548 15.548 0 0 0 23 38.573c8.6 0 15.573-6.972 15.573-15.573C38.573 14.4 31.6 7.427 23 7.427zm9.852-4.314H13.155l-.002 4.565-.005.133-.01.165A17.885 17.885 0 0 1 23 5.031c3.645 0 7.037 1.086 9.87 2.951l-.01-.168-.006-.13-.002-.509v-4.06z" fill="#000" fill-rule="nonzero"/>
    </g>
</svg>
