<svg width="28" height="28" viewBox="0 0 28 28" xmlns="http://www.w3.org/2000/svg">
    <g fill="none" fill-rule="evenodd">
        <path d="M0 28h28V0H0z"/>
        <path d="M0 28h28V0H0z"/>
        <path d="M22.636 4H5.363C4.61 4 4 4.611 4 5.364v17.272C4 23.389 4.61 24 5.363 24h17.273C23.39 24 24 23.389 24 22.636V5.364C24 4.611 23.39 4 22.636 4m0 .909c.251 0 .455.204.455.455v17.272a.455.455 0 0 1-.455.455H5.363a.455.455 0 0 1-.454-.455V5.364c0-.251.204-.455.454-.455h17.273" fill="#FFF"/>
        <path d="M6.546 20.153a.545.545 0 1 1 0 1.09.545.545 0 0 1 0-1.09zm14.176 0a.545.545 0 1 1 0 1.09.545.545 0 0 1 0-1.09zm-2.363 0a.545.545 0 1 1 0 1.09.545.545 0 0 1 0-1.09zm-2.362 0a.545.545 0 1 1 0 1.09.545.545 0 0 1 0-1.09zm-2.363 0a.545.545 0 1 1 0 1.09.545.545 0 0 1 0-1.09zm-2.363 0a.545.545 0 1 1 0 1.09.545.545 0 0 1 0-1.09zm-2.362 0a.545.545 0 1 1 0 1.09.545.545 0 0 1 0-1.09zm-2.363-2.359a.545.545 0 1 1 0 1.09.545.545 0 0 1 0-1.09zm14.176 0a.545.545 0 1 1 0 1.09.545.545 0 0 1 0-1.09zm-2.363 0a.545.545 0 1 1 0 1.09.545.545 0 0 1 0-1.09zm-2.362 0a.545.545 0 1 1 0 1.09.545.545 0 0 1 0-1.09zm-2.363 0a.545.545 0 1 1 0 1.09.545.545 0 0 1 0-1.09zm-2.363 0a.545.545 0 1 1 0 1.09.545.545 0 0 1 0-1.09zm-2.362 0a.545.545 0 1 1 0 1.09.545.545 0 0 1 0-1.09zm0-2.359a.545.545 0 1 1 0 1.09.545.545 0 0 1 0-1.09zm-2.363 0a.545.545 0 1 1 0 1.09.545.545 0 0 1 0-1.09zm14.176 0a.545.545 0 1 1 0 1.09.545.545 0 0 1 0-1.09zm-2.363 0a.545.545 0 1 1 0 1.09.545.545 0 0 1 0-1.09zm0-2.358a.545.545 0 1 1 0 1.09.545.545 0 0 1 0-1.09zm-11.813 0a.545.545 0 1 1 0 1.09.545.545 0 0 1 0-1.09zm14.176 0a.545.545 0 1 1 0 1.09.545.545 0 0 1 0-1.09zm-11.813 0a.545.545 0 1 1 0 1.09.545.545 0 0 1 0-1.09zm-2.363-2.36a.545.545 0 1 1 0 1.09.545.545 0 0 1 0-1.09zm11.813 0a.545.545 0 1 1 0 1.09.545.545 0 0 1 0-1.09zm2.363 0a.545.545 0 1 1 0 1.09.545.545 0 0 1 0-1.09zm-11.813 0a.545.545 0 1 1 0 1.09.545.545 0 0 1 0-1.09zM6.546 8.36a.545.545 0 1 1 0 1.09.545.545 0 0 1 0-1.09zm14.176 0a.545.545 0 1 1 0 1.09.545.545 0 0 1 0-1.09zm-2.363 0a.545.545 0 1 1 0 1.09.545.545 0 0 1 0-1.09zm-2.362 0a.545.545 0 1 1 0 1.09.545.545 0 0 1 0-1.09zm-2.363 0a.545.545 0 1 1 0 1.09.545.545 0 0 1 0-1.09zm-2.363 0a.545.545 0 1 1 0 1.09.545.545 0 0 1 0-1.09zm-2.362 0a.545.545 0 1 1 0 1.09.545.545 0 0 1 0-1.09zM6.546 6a.545.545 0 1 1 0 1.09.545.545 0 0 1 0-1.09zm14.176 0a.545.545 0 1 1 0 1.09.545.545 0 0 1 0-1.09zm-2.363 0a.545.545 0 1 1 0 1.09.545.545 0 0 1 0-1.09zm-2.362 0a.545.545 0 1 1 0 1.09.545.545 0 0 1 0-1.09zm-2.363 0a.545.545 0 1 1 0 1.09.545.545 0 0 1 0-1.09zm-2.363 0a.545.545 0 1 1 0 1.09.545.545 0 0 1 0-1.09zM8.91 6a.545.545 0 1 1 0 1.09.545.545 0 0 1 0-1.09z" fill="#FFF"/>
    </g>
</svg>
