<?xml version="1.0" encoding="UTF-8"?>
<svg width="24px" height="24px" viewBox="0 0 24 24" version="1.1" xmlns="http://www.w3.org/2000/svg" xmlns:xlink="http://www.w3.org/1999/xlink">
    <title>7DBF53A8-6756-4EE4-9900-5C2F75D97A4C</title>
    <g id="🟢v2.1" stroke="none" stroke-width="1" fill="none" fill-rule="evenodd">
        <g id="DSC-Careers-Footer(QR)-case" transform="translate(-1191.000000, -816.000000)">
            <g id="DSC-Careers-Footer(1QR)-PC" transform="translate(117.000000, 456.000000)">
                <g id="Footer-/-DSC-/-PC" transform="translate(0.000000, 43.000000)">
                    <g id="Group_02" transform="translate(24.000000, 317.000000)">
                        <g id="Right" transform="translate(916.000000, 0.000000)">
                            <g id="Share" transform="translate(72.000000, 0.000000)">
                                <g id="Icon-/-Share-/-Wechat-/-WT" transform="translate(62.000000, 0.000000)">
                                    <circle id="Oval-Copy-2" fill="#EDEDED" cx="12" cy="12" r="12"></circle>
                                    <path d="M14.2373448,10.2698341 C13.2137923,10.2820749 12.2324041,10.678924 11.4886052,11.3813566 C10.7293607,12.0918579 10.3530474,13.1202782 10.4746634,14.1523415 C10.0576318,14.1004973 9.67729178,14.0437368 9.29560939,14.0115576 C9.15837365,13.9959897 9.01952915,14.0195423 8.89513373,14.0794914 C8.52419035,14.289103 8.16846058,14.5264245 7.74695435,14.7896681 C7.82436473,14.4392725 7.87448012,14.1326765 7.96307697,13.8377007 C8.04727115,13.6599469 7.97420839,13.4475603 7.79841212,13.3590354 C6.51778492,12.4504205 5.9777021,11.0953194 6.38175743,9.69954751 C6.73561075,8.48559502 7.69869367,7.54448944 8.9215338,7.21772827 C10.6058934,6.65746513 12.4614593,7.20171892 13.5751057,8.58266181 C13.95427,9.06941563 14.1842715,9.65538554 14.2373448,10.2698341 L14.2373448,10.2698341 Z M9.32603673,9.83496823 C9.32622958,9.57061531 9.11709613,9.35343528 8.85262514,9.34334187 C8.72513725,9.3381506 8.60085669,9.38404951 8.50741667,9.47083318 C8.41397665,9.55761686 8.35912255,9.67809169 8.35505091,9.80547065 C8.34983812,9.93320755 8.39667982,10.0576009 8.48487949,10.1502449 C8.57307917,10.2428889 8.69510536,10.2958726 8.82309286,10.297097 C9.08909562,10.3064546 9.31322371,10.1005149 9.32603673,9.83496823 Z M11.8890808,9.34334187 C11.6238672,9.3493462 11.4111296,9.56420576 11.4080626,9.8291581 C11.4113425,9.95659654 11.4651946,10.0775087 11.5577622,10.1652734 C11.6503299,10.2530381 11.7740236,10.3004595 11.9016097,10.297097 C12.075612,10.299503 12.2371951,10.2073324 12.3235358,10.0564209 C12.4098765,9.90550939 12.4073516,9.71966843 12.3169428,9.5711527 C12.226534,9.42263696 12.0625062,9.3348798 11.8886334,9.34200107 L11.8890808,9.34334187 Z M16.6361717,16.9318182 C16.3321113,16.7475185 16.0025237,16.6089713 15.6580266,16.5206398 C15.3132643,16.5518565 14.9722565,16.6157577 14.6396103,16.7114802 C13.6307265,16.8385306 12.6179012,16.5076051 11.8792367,15.8095693 C10.4070972,14.4464235 10.6174028,12.3561176 12.3204311,11.2387849 C13.8761183,10.2517774 15.9215357,10.5564491 17.121217,11.9538778 C18.0689813,13.0976545 17.9299546,14.7878187 16.8079959,15.7617474 C16.4791136,16.0540417 16.360537,16.2944916 16.5717376,16.6797479 C16.6031803,16.7609114 16.6248113,16.8455334 16.6361717,16.9318182 L16.6361717,16.9318182 Z M12.7880256,13.2026111 C12.9304624,13.2030878 13.0623352,13.1276306 13.1339689,13.0046613 C13.2056026,12.8816919 13.2061143,12.7298923 13.1353113,12.6064439 C13.0645082,12.4829955 12.9331471,12.4066531 12.7907104,12.4061741 C12.6451873,12.4009867 12.5084083,12.4754563 12.4339186,12.6004302 C12.359429,12.725404 12.3590791,12.8810002 12.433006,13.006307 C12.5069329,13.1316137 12.6433756,13.2066963 12.7889206,13.2021619 L12.7880256,13.2026111 Z M15.2678425,12.4070679 C15.0557612,12.4087792 14.8822324,12.5762087 14.8731838,12.7878549 C14.8686445,12.9470403 14.9609827,13.0931456 15.1068122,13.1575214 C15.2526417,13.2218972 15.422971,13.1917454 15.5377688,13.0812332 C15.6525666,12.970721 15.6890107,12.8018185 15.6299773,12.6538869 C15.5709439,12.5059552 15.4281691,12.4084036 15.2687374,12.4070679 L15.2678425,12.4070679 Z" id="ic_wechat" fill="#000000"></path>
                                </g>
                            </g>
                        </g>
                    </g>
                </g>
            </g>
        </g>
    </g>
</svg>