<svg width="28" height="28" viewBox="0 0 28 28" xmlns="http://www.w3.org/2000/svg">
    <g fill="none" fill-rule="evenodd">
        <path stroke="#FFF" stroke-linecap="round" stroke-linejoin="round" d="M13.957 2.538v1.856M5.764 5.967 7.077 7.28M2.395 14.185h1.857M5.825 22.378l1.313-1.313M22.236 22.317l-1.313-1.312M25.605 14.099h-1.857M22.175 5.906l-1.313 1.313"/>
        <path d="M14 7c-3.314 0-6 3-6 6 0 4 3 6 3 7 0 .5 1.5.75 3 .75s3-.25 3-.75c0-1 3-3 3-7 0-3-2.686-6-6-6m0 1c2.862 0 5 2.64 5 5 0 2.333-1.169 3.892-2.022 5.03-.414.552-.762 1.015-.906 1.498-.323.097-1.026.222-2.072.222s-1.749-.125-2.072-.222c-.144-.483-.492-.946-.906-1.498C10.169 16.892 9 15.333 9 13c0-2.36 2.138-5 5-5" fill="#FFF"/>
        <path stroke="#FFF" stroke-linecap="round" stroke-linejoin="round" d="M11.7 22.493h4.6M12.696 24.514h2.607"/>
        <path fill="#FFF" d="m15.104 10.74-.663-.662.663-.662.663.662zM16.209 11.845l-.663-.663.663-.662.662.662z"/>
        <path fill="#FFF" d="m15.104 10.74-.663-.662.663-.662.663.662zM16.209 11.845l-.663-.663.663-.662.662.662zM17.313 12.95l-.663-.664.663-.662.663.662z"/>
        <path fill="#FFF" d="m15.104 10.74-.663-.662.663-.662.663.662zM16.209 11.845l-.663-.663.663-.662.662.662zM17.313 12.95l-.663-.664.663-.662.663.662z"/>
        <path fill="#FFF" d="m16.209 11.845-.663-.663.663-.662.662.662zM17.313 12.95l-.663-.664.663-.662.663.662zM12.896 10.74l-.663-.662.663-.662.663.662zM14 11.845l-.663-.663.663-.662.663.662zM15.104 12.95l-.663-.664.663-.662.663.662z"/>
        <path fill="#FFF" d="m14 11.845-.663-.663.663-.662.663.662zM15.104 12.95l-.663-.664.663-.662.663.662zM16.209 14.053l-.663-.663.663-.662.662.662z"/>
        <path fill="#FFF" d="m14 11.845-.663-.663.663-.662.663.662zM15.104 12.95l-.663-.664.663-.662.663.662zM16.209 14.053l-.663-.663.663-.662.662.662z"/>
        <path fill="#FFF" d="m15.104 12.95-.663-.664.663-.662.663.662zM16.209 14.053l-.663-.663.663-.662.662.662zM17.313 15.158l-.663-.663.663-.662.663.662zM11.791 11.845l-.663-.663.663-.662.663.662zM12.896 12.95l-.663-.664.663-.662.663.662zM14 14.053l-.663-.663.663-.662.663.662z"/>
        <path fill="#FFF" d="m12.896 12.95-.663-.664.663-.662.663.662zM14 14.053l-.663-.663.663-.662.663.662zM15.104 15.158l-.663-.663.663-.662.663.662z"/>
        <path fill="#FFF" d="m12.896 12.95-.663-.664.663-.662.663.662zM14 14.053l-.663-.663.663-.662.663.662zM15.104 15.158l-.663-.663.663-.662.663.662z"/>
        <path fill="#FFF" d="m14 14.053-.663-.663.663-.662.663.662zM15.104 15.158l-.663-.663.663-.662.663.662zM16.209 16.262l-.663-.663.663-.662.662.662zM10.687 12.95l-.663-.664.663-.662.663.662zM11.791 14.053l-.663-.663.663-.662.663.662zM12.896 15.158l-.663-.663.663-.662.663.662z"/>
        <path fill="#FFF" d="m11.791 14.053-.663-.663.663-.662.663.662zM12.896 15.158l-.663-.663.663-.662.663.662zM14 16.262l-.663-.663.663-.662.663.662z"/>
        <path fill="#FFF" d="m11.791 14.053-.663-.663.663-.662.663.662zM12.896 15.158l-.663-.663.663-.662.663.662zM14 16.262l-.663-.663.663-.662.663.662z"/>
        <path fill="#FFF" d="m12.896 15.158-.663-.663.663-.662.663.662zM14 16.262l-.663-.663.663-.662.663.662zM15.104 17.366l-.663-.663.663-.662.663.662zM10.687 15.158l-.663-.663.663-.662.663.662zM11.791 16.262l-.663-.663.663-.662.663.662z"/>
        <path fill="#FFF" d="m10.687 15.158-.663-.663.663-.662.663.662zM11.791 16.262l-.663-.663.663-.662.663.662zM12.896 17.366l-.663-.663.663-.662.663.662z"/>
        <path fill="#FFF" d="m10.687 15.158-.663-.663.663-.662.663.662zM11.791 16.262l-.663-.663.663-.662.663.662zM12.896 17.366l-.663-.663.663-.662.663.662z"/>
        <path fill="#FFF" d="m11.791 16.262-.663-.663.663-.662.663.662zM12.896 17.366l-.663-.663.663-.662.663.662z"/>
    </g>
</svg>
