<svg width="28" height="28" viewBox="0 0 28 28" xmlns="http://www.w3.org/2000/svg">
    <g fill="none" fill-rule="evenodd">
        <path d="M0 28h28V0H0z"/>
        <path d="M14 6.5a7.5 7.5 0 1 0 0 15 7.5 7.5 0 0 0 0-15m0 1c3.584 0 6.5 2.916 6.5 6.5s-2.916 6.5-6.5 6.5A6.508 6.508 0 0 1 7.5 14c0-3.584 2.916-6.5 6.5-6.5" fill="#FFF"/>
        <path d="m14.231 2-2.744 1.843L8.2 3.492 6.745 6.46 3.723 7.8l.224 3.298L2 13.769l1.843 2.744-.35 3.287 2.967 1.455 1.34 3.022 3.298-.224L13.77 26l2.744-1.843 3.287.351 1.455-2.968 3.022-1.34-.224-3.298L26 14.231l-1.843-2.744.351-3.287-2.968-1.455-1.34-3.022-3.298.224L14.232 2zm-.024 1.22 2.106 1.535.294.215.363-.025 2.6-.177 1.055 2.382.148.333.326.16 2.34 1.147-.276 2.591-.039.362.203.302 1.452 2.163-1.534 2.105-.215.294.025.363.176 2.6-2.382 1.056-.332.147-.16.327-1.147 2.339-2.59-.276-.363-.039-.302.203-2.163 1.453-2.105-1.535-.294-.215-.363.025-2.6.177-1.056-2.382-.147-.333-.327-.16-2.339-1.147.276-2.591.04-.362-.204-.302-1.453-2.163 1.535-2.105.214-.294-.024-.363-.177-2.6L7.15 7.374l.333-.147.16-.327L8.79 4.561l2.591.276.361.039.302-.203 2.163-1.453z" fill="#FFF"/>
        <path stroke="#FFF" stroke-width=".75" stroke-linecap="round" d="m11.169 13.057 2.611 2.669 3.959-3.91"/>
    </g>
</svg>
