<svg width="96" height="96" viewBox="0 0 96 96" fill="none" xmlns="http://www.w3.org/2000/svg">
<path fill-rule="evenodd" clip-rule="evenodd" d="M56 18V40H78V18H56ZM53 10C50.2386 10 48 12.2386 48 15V43C48 45.7614 50.2386 48 53 48H81C83.7614 48 86 45.7614 86 43V15C86 12.2386 83.7614 10 81 10H53Z" fill="black"/>
<path fill-rule="evenodd" clip-rule="evenodd" d="M56 18V40H78V18H56ZM53 10C50.2386 10 48 12.2386 48 15V43C48 45.7614 50.2386 48 53 48H81C83.7614 48 86 45.7614 86 43V15C86 12.2386 83.7614 10 81 10H53Z" fill="black" fill-opacity="0.2"/>
<path fill-rule="evenodd" clip-rule="evenodd" d="M56 18V40H78V18H56ZM53 10C50.2386 10 48 12.2386 48 15V43C48 45.7614 50.2386 48 53 48H81C83.7614 48 86 45.7614 86 43V15C86 12.2386 83.7614 10 81 10H53Z" fill="black" fill-opacity="0.2"/>
<path d="M41 16H15C12.2386 16 10 18.2386 10 21V81C10 83.7614 12.2386 86 15 86H75C77.7614 86 80 83.7614 80 81V55H72V78H18V24H41V16Z" fill="black"/>
<path d="M41 16H15C12.2386 16 10 18.2386 10 21V81C10 83.7614 12.2386 86 15 86H75C77.7614 86 80 83.7614 80 81V55H72V78H18V24H41V16Z" fill="black" fill-opacity="0.2"/>
<path d="M41 16H15C12.2386 16 10 18.2386 10 21V81C10 83.7614 12.2386 86 15 86H75C77.7614 86 80 83.7614 80 81V55H72V78H18V24H41V16Z" fill="black" fill-opacity="0.2"/>
</svg>
