<svg width="50" height="50" viewBox="0 0 50 50" xmlns="http://www.w3.org/2000/svg">
    <g fill="none" fill-rule="evenodd">
        <path fill="#FFF" d="M-1133-28H307v167h-1440z"/>
        <path fill="#FFF" d="M-1133-28H307v167h-1440z"/>
        <path d="M3.125 46.875h43.75V3.125H3.125z"/>
        <path stroke="#000" stroke-width="1.155" stroke-linecap="round" stroke-linejoin="round" d="M25 21.693v17.769M26.548 20.16a1.54 1.54 0 0 1-1.549 1.533 1.54 1.54 0 0 1-1.546-1.532 1.54 1.54 0 0 1 1.546-1.533 1.54 1.54 0 0 1 1.549 1.533zM33.601 21.693a1.54 1.54 0 0 1-1.548 1.533 1.54 1.54 0 0 1-1.547-1.533 1.54 1.54 0 0 1 1.547-1.533 1.54 1.54 0 0 1 1.548 1.533z"/>
        <path stroke="#000" stroke-width="1.155" d="M32.054 23.225v3.064l-2.52 1.67v10.39"/>
        <path d="M19.494 21.693a1.54 1.54 0 0 1-1.548 1.533 1.54 1.54 0 0 1-1.547-1.533 1.54 1.54 0 0 1 1.547-1.533 1.54 1.54 0 0 1 1.548 1.533z" stroke="#000" stroke-width="1.155" stroke-linecap="round" stroke-linejoin="round"/>
        <path stroke="#000" stroke-width="1.155" d="M17.946 23.225v3.064l2.52 1.67v10.39"/>
        <path d="M25 8.717c-.216 0-.43.033-.637.1l-11.843 3.79c-.939.3-1.582 1.223-1.582 2.268v7.237c0 10.018 5.687 14.574 12.993 18.878a2.1 2.1 0 0 0 2.138 0c7.306-4.304 12.994-8.86 12.994-18.878v-7.237c0-1.045-.644-1.969-1.583-2.269L25.638 8.817a2.066 2.066 0 0 0-.638-.1m0 1.563c.055 0 .11.009.163.025l11.842 3.79c.29.092.495.414.495.78v7.237c0 8.683-4.297 12.86-12.225 17.532a.526.526 0 0 1-.55 0C16.797 34.972 12.5 30.795 12.5 22.112v-7.237c0-.366.205-.688.495-.78l11.842-3.79A.578.578 0 0 1 25 10.28" fill="#000"/>
    </g>
</svg>
