<svg width="28" height="28" viewBox="0 0 28 28" xmlns="http://www.w3.org/2000/svg">
    <g fill="none" fill-rule="evenodd">
        <path d="M0 28h28V0H0z"/>
        <path d="M23 5H5a3 3 0 0 0-3 3v12a3 3 0 0 0 3 3h18a3 3 0 0 0 3-3V8a3 3 0 0 0-3-3m0 1c1.103 0 2 .897 2 2v12c0 1.103-.897 2-2 2H5c-1.103 0-2-.897-2-2V8c0-1.103.897-2 2-2h18" fill="#FFF"/>
        <path d="m18.81 14.235-.915-.23a4.2 4.2 0 0 0-.238-.523l.452-.753a.35.35 0 0 0-.053-.428l-1.066-1.066a.351.351 0 0 0-.43-.053l-.804.483a4.176 4.176 0 0 0-.542-.2L15 10.613a.352.352 0 0 0-.341-.266h-1.507a.353.353 0 0 0-.341.266l-.228.915a4.214 4.214 0 0 0-.525.238l-.752-.452a.351.351 0 0 0-.43.053l-1.065 1.066a.352.352 0 0 0-.053.429l.484.805a4.035 4.035 0 0 0-.2.542l-.852.213a.35.35 0 0 0-.266.34v1.508a.35.35 0 0 0 .266.34l.915.229c.066.183.147.355.237.525l-.451.752a.351.351 0 0 0 .053.429l1.066 1.066a.35.35 0 0 0 .428.053l.806-.484c.174.082.356.143.542.2l.213.853a.35.35 0 0 0 .34.265h1.508a.35.35 0 0 0 .34-.265l.229-.916c.182-.066.355-.147.524-.237l.753.45a.35.35 0 0 0 .428-.051l1.066-1.066a.351.351 0 0 0 .053-.43l-.483-.805c.08-.173.143-.356.2-.541l.852-.214a.35.35 0 0 0 .266-.34v-1.507a.351.351 0 0 0-.266-.341z" stroke="#FFF" stroke-width=".75" stroke-linecap="round" stroke-linejoin="round"/>
        <path d="M16 15.423a2 2 0 1 1-3.999 0 2 2 0 0 1 3.999 0z" stroke="#FFF" stroke-width=".75"/>
        <path stroke="#FFF" d="M2.82 8.407h22.716"/>
    </g>
</svg>
