<svg xmlns="http://www.w3.org/2000/svg" width="24" height="24" viewBox="0 0 24 24">
    <g fill="none" fill-rule="evenodd">
        <g fill="#333" fill-rule="nonzero">
            <g>
                <g>
                    <g>
                        <path d="M14.276 9.724c.518.518.918 1.126 1.19 1.807l-1.857.742c-.17-.428-.422-.81-.748-1.134-.654-.655-1.534-1-2.485-.998-.958.012-1.86.394-2.542 1.075l-3.26 3.26c-1.407 1.407-1.442 3.662-.077 5.027.654.654 1.537 1.005 2.486.997.957-.012 1.86-.393 2.541-1.075l3.26-3.26 1.414 1.415-3.26 3.26c-1.025 1.024-2.375 1.61-3.814 1.657l-.152.003h-.035c-1.466 0-2.832-.56-3.854-1.583-2.144-2.144-2.11-5.668.077-7.856l3.26-3.26c1.053-1.052 2.449-1.641 3.932-1.66 1.492-.014 2.885.545 3.924 1.583zm6.641-6.64c2.144 2.144 2.11 5.668-.078 7.855l-3.26 3.26c-1.107 1.107-2.558 1.663-3.998 1.663-1.404 0-2.798-.528-3.857-1.586-.518-.518-.918-1.125-1.19-1.807l1.857-.742c.17.428.422.81.747 1.134 1.365 1.365 3.62 1.33 5.028-.077l3.26-3.26c1.407-1.407 1.441-3.662.077-5.027-.654-.654-1.536-1.005-2.486-.997-.957.012-1.86.393-2.541 1.075l-3.26 3.26L9.802 6.42l3.26-3.26c1.052-1.052 2.448-1.642 3.931-1.66 1.492-.025 2.886.545 3.924 1.583z" transform="translate(-158.000000, -1089.000000) translate(158.000000, 955.000000) translate(0.000000, 8.000000) translate(0.000000, 126.000000)"/>
                    </g>
                </g>
            </g>
        </g>
    </g>
</svg>
