<svg width="28" height="28" viewBox="0 0 28 28" xmlns="http://www.w3.org/2000/svg">
    <g fill="none" fill-rule="evenodd">
        <path d="M0 28h28V0H0z"/>
        <g fill="#FFF">
            <path d="M24.584 7.5H3.416C2.634 7.5 2 8.134 2 8.916v10.168c0 .782.634 1.416 1.416 1.416H12a.75.75 0 0 0 .75-.751v-1.071a.07.07 0 0 1 .069-.069h2.362a.07.07 0 0 1 .069.069v1.071a.75.75 0 0 0 .75.751h8.584c.782 0 1.416-.634 1.416-1.416V8.916c0-.782-.634-1.416-1.416-1.416m0 1c.229 0 .416.187.416.416v10.168a.417.417 0 0 1-.416.416H16.25v-.822a1.07 1.07 0 0 0-1.07-1.069H12.82a1.07 1.07 0 0 0-1.07 1.069v.822H3.417A.417.417 0 0 1 3 19.084V8.916c0-.229.187-.416.416-.416h21.168"/>
            <path d="M7.46 9.454H4.865a.702.702 0 0 0-.702.703v5.594c0 .388.314.703.702.703H7.46a.703.703 0 0 0 .703-.703v-5.594a.703.703 0 0 0-.703-.703zm-2.547 6.25h2.5v-5.5h-2.5v5.5zM12.685 9.454H10.09a.702.702 0 0 0-.702.703v5.594c0 .388.314.703.702.703h2.595a.703.703 0 0 0 .703-.703v-5.594a.703.703 0 0 0-.703-.703zm-2.547 6.25h2.5v-5.5h-2.5v5.5zM17.91 9.454h-2.595a.702.702 0 0 0-.702.703v5.594c0 .388.314.703.702.703h2.595a.703.703 0 0 0 .703-.703v-5.594a.703.703 0 0 0-.703-.703zm-2.547 6.25h2.5v-5.5h-2.5v5.5zM23.135 9.454H20.54a.702.702 0 0 0-.702.703v5.594c0 .388.314.703.702.703h2.595a.703.703 0 0 0 .703-.703v-5.594a.703.703 0 0 0-.703-.703zm-2.547 6.25h2.5v-5.5h-2.5v5.5z"/>
        </g>
    </g>
</svg>
