<svg xmlns="http://www.w3.org/2000/svg" width="18" height="18" viewBox="0 0 18 18">
    <g fill="none" fill-rule="evenodd">
        <g fill="#2189ff" fill-rule="nonzero">
            <g>
                <g>
                    <g>
                        <g>
                            <path d="M9.281 0v7.417c1.137.326 1.969 1.373 1.969 2.614 0 1.242-.832 2.289-1.968 2.614V15h-1.5l-.001-2.355c-1.137-.326-1.968-1.373-1.968-2.614 0-1.24.831-2.288 1.968-2.614V0h1.5zM3.47 0v2.355c1.137.325 1.969 1.372 1.969 2.614 0 1.241-.832 2.288-1.969 2.614V15h-1.5V7.583C.831 7.257 0 6.21 0 4.969 0 3.728.832 2.68 1.968 2.355V0h1.5zM8.53 8.813c-.673 0-1.219.545-1.219 1.218 0 .673.546 1.219 1.22 1.219.672 0 1.218-.546 1.218-1.219s-.546-1.219-1.219-1.219zM2.72 3.75c-.673 0-1.219.546-1.219 1.219s.546 1.218 1.219 1.218 1.219-.545 1.219-1.218c0-.673-.546-1.219-1.22-1.219z" transform="translate(-32.000000, -1244.000000) translate(0.000000, 1217.000000) translate(32.000000, 23.000000) translate(0.000000, 4.000000) translate(3.375000, 1.500000)" />
                        </g>
                    </g>
                </g>
            </g>
        </g>
    </g>
</svg>