<svg width="50" height="50" viewBox="0 0 50 50" xmlns="http://www.w3.org/2000/svg">
    <g fill="none" fill-rule="evenodd">
        <path fill="#FFF" d="M-376-28h1440v167H-376z"/>
        <path fill="#FFF" d="M-376-28h1440v167H-376z"/>
        <g fill="#000">
            <path d="M38.494 9.375H11.505a2.13 2.13 0 0 0-2.13 2.131v26.988a2.13 2.13 0 0 0 2.13 2.131h26.99a2.132 2.132 0 0 0 2.13-2.131V11.506a2.132 2.132 0 0 0-2.13-2.131m0 1.42c.392 0 .71.32.71.711v26.988c0 .392-.318.71-.71.71h-26.99a.711.711 0 0 1-.71-.71V11.506c0-.392.32-.71.71-.71h26.99"/>
            <path d="M14.775 13.939a.852.852 0 1 1-1.703 0 .852.852 0 0 1 1.703 0M36.925 13.939a.852.852 0 1 1-1.703 0 .852.852 0 0 1 1.703 0M33.234 13.939a.852.852 0 1 1-1.704 0 .852.852 0 0 1 1.704 0M29.542 13.939a.852.852 0 1 1-1.703 0 .852.852 0 0 1 1.703 0M25.85 13.939a.852.852 0 1 1-1.703 0 .852.852 0 0 1 1.703 0M22.159 13.939a.852.852 0 1 1-1.704 0 .852.852 0 0 1 1.704 0M18.467 13.939a.852.852 0 1 1-1.703 0 .852.852 0 0 1 1.703 0M14.775 17.625a.852.852 0 1 1-1.703 0 .852.852 0 0 1 1.703 0M36.925 17.625a.852.852 0 1 1-1.703 0 .852.852 0 0 1 1.703 0M33.234 17.625a.852.852 0 1 1-1.704 0 .852.852 0 0 1 1.704 0M29.542 17.625a.852.852 0 1 1-1.703 0 .852.852 0 0 1 1.703 0M25.85 17.625a.852.852 0 1 1-1.703 0 .852.852 0 0 1 1.703 0M22.159 17.625a.852.852 0 1 1-1.704 0 .852.852 0 0 1 1.704 0M18.467 17.625a.852.852 0 1 1-1.703 0 .852.852 0 0 1 1.703 0M14.775 21.31a.852.852 0 1 1-1.703 0 .852.852 0 0 1 1.703 0M36.925 21.31a.852.852 0 1 1-1.703 0 .852.852 0 0 1 1.703 0M33.234 21.31a.852.852 0 1 1-1.704 0 .852.852 0 0 1 1.704 0M18.467 21.31a.852.852 0 1 1-1.703 0 .852.852 0 0 1 1.703 0M14.775 24.996a.852.852 0 1 1-1.703 0 .852.852 0 0 1 1.703 0M36.925 24.996a.852.852 0 1 1-1.703 0 .852.852 0 0 1 1.703 0M33.234 24.996a.852.852 0 1 1-1.704 0 .852.852 0 0 1 1.704 0M18.467 24.996a.852.852 0 1 1-1.703 0 .852.852 0 0 1 1.703 0M14.775 28.682a.852.852 0 1 1-1.703 0 .852.852 0 0 1 1.703 0M36.925 28.682a.852.852 0 1 1-1.703 0 .852.852 0 0 1 1.703 0M33.234 28.682a.852.852 0 1 1-1.704 0 .852.852 0 0 1 1.704 0M18.467 28.682a.852.852 0 1 1-1.703 0 .852.852 0 0 1 1.703 0M14.775 32.368a.852.852 0 1 1-1.703 0 .852.852 0 0 1 1.703 0M36.925 32.368a.852.852 0 1 1-1.703 0 .852.852 0 0 1 1.703 0M33.234 32.368a.852.852 0 1 1-1.704 0 .852.852 0 0 1 1.704 0M29.542 32.368a.852.852 0 1 1-1.703 0 .852.852 0 0 1 1.703 0M25.85 32.368a.852.852 0 1 1-1.703 0 .852.852 0 0 1 1.703 0M22.159 32.368a.852.852 0 1 1-1.704 0 .852.852 0 0 1 1.704 0M18.467 32.368a.852.852 0 1 1-1.703 0 .852.852 0 0 1 1.703 0M14.775 36.053a.852.852 0 1 1-1.703 0 .852.852 0 0 1 1.703 0M36.925 36.053a.852.852 0 1 1-1.703 0 .852.852 0 0 1 1.703 0M33.234 36.053a.852.852 0 1 1-1.704 0 .852.852 0 0 1 1.704 0M29.542 36.053a.852.852 0 1 1-1.703 0 .852.852 0 0 1 1.703 0M25.85 36.053a.852.852 0 1 1-1.703 0 .852.852 0 0 1 1.703 0M22.159 36.053a.852.852 0 1 1-1.704 0 .852.852 0 0 1 1.704 0M18.467 36.053a.852.852 0 1 1-1.703 0 .852.852 0 0 1 1.703 0M27.698 23.157a.852.852 0 1 1-1.703 0 .852.852 0 0 1 1.703 0M24.006 23.157a.852.852 0 1 1-1.703 0 .852.852 0 0 1 1.703 0M27.698 26.843a.852.852 0 1 1-1.703 0 .852.852 0 0 1 1.703 0M24.006 26.843a.852.852 0 1 1-1.703 0 .852.852 0 0 1 1.703 0"/>
        </g>
    </g>
</svg>
