<svg width="28" height="28" viewBox="0 0 28 28" xmlns="http://www.w3.org/2000/svg">
    <g fill="none" fill-rule="evenodd">
        <path d="M0 28h28V0H0z"/>
        <path d="M14.586 3.81c5.338.286 9.58 4.762 9.58 10.24 0 5.664-4.532 10.256-10.124 10.256-5.59 0-10.123-4.592-10.123-10.256 0-3.451 1.683-6.504 4.263-8.363" stroke="#FFF" stroke-linecap="round" stroke-linejoin="round"/>
        <path d="M11.702 2.305c-.603 0-1.19.058-1.76.143-4.621.69-7.281 3.686-7.281 7.3 0 1.31.177 2.44.898 3.508.29.036.82.16 1.12.16 3.816 0 6.89-2.648 6.89-6.326 0-.048.017-.276.016-.324-.002-.077.02-.306.016-.382.029-1.769 1.24-3.239 2.928-3.703a10.81 10.81 0 0 0-2.827-.376m0 1h.053a4.891 4.891 0 0 0-1.153 3.1l-.007.126a3.616 3.616 0 0 0-.01.226l-.007.126a3.98 3.98 0 0 0-.01.207c0 3.036-2.531 5.325-5.888 5.325a4.56 4.56 0 0 1-.505-.07c-.362-.68-.514-1.467-.514-2.597 0-3.3 2.463-5.72 6.428-6.31a10.83 10.83 0 0 1 1.613-.133M19.59 5.166h-.988c.085.14.148.294.148.469 0 .52-.44.898-.978.942a1.45 1.45 0 0 1-.389-.025 6.67 6.67 0 0 0-1.203-.118c-.35 0-.682.035-.982.11-.153.04-.299.094-.44.158a2.176 2.176 0 0 0-.684.439c-.058.05-.109.105-.163.16l-.03.032a2.699 2.699 0 0 0-.435.633 2.534 2.534 0 0 0-.294 1.165c0 1.276.916 2.34 2.142 2.616.948.212 1.135.595 1.135 1.224 0 .628-.458 1.3-1.017 1.539a3.19 3.19 0 0 1-.51.17 4.839 4.839 0 0 0-1.111.423 4.749 4.749 0 0 0-.805.54 5.585 5.585 0 0 0-.732.743c-1.395 1.698-1.253 4.046.316 5.244a3.433 3.433 0 0 0 2.096.688c1.186 0 2.417-.556 3.271-1.595.297-.361.497-.756.655-1.158a11.374 11.374 0 0 0 .87-2.502s.091-.438.105-.52c.24-1.105 1.256-1.936 2.474-1.936 1.107 0 2.038.69 2.38 1.646.153-.71.24-1.446.24-2.202 0-3.8-2.042-7.113-5.072-8.885m-.124.802c2.75 1.728 4.446 4.797 4.446 8.083 0 .125-.003.25-.008.377a3.308 3.308 0 0 0-1.862-.571c-1.54 0-2.89 1.063-3.212 2.555-.014.076-.098.484-.098.484a10.778 10.778 0 0 1-.814 2.342l-.013.026-.01.028a3.408 3.408 0 0 1-.537.955c-.679.827-1.685 1.32-2.69 1.32a2.672 2.672 0 0 1-1.642-.534 2.507 2.507 0 0 1-.962-1.725c-.097-.84.183-1.731.771-2.446a4.75 4.75 0 0 1 .632-.642c.212-.176.44-.33.676-.455a4.142 4.142 0 0 1 .942-.358 4.033 4.033 0 0 0 .623-.207c.84-.36 1.472-1.318 1.472-2.23 0-1.086-.53-1.69-1.72-1.954-.917-.207-1.557-.982-1.557-1.885 0-.274.071-.551.211-.823.097-.19.2-.34.313-.46l.008-.008.044-.045c.028-.03.056-.06.114-.111.127-.122.275-.216.473-.298.11-.05.218-.088.316-.114.233-.06.501-.088.8-.088.325 0 .684.035 1.04.1.035.008.22.047.45.047.053 0 .107-.002.163-.007.827-.068 1.477-.628 1.631-1.356" fill="#FFF"/>
    </g>
</svg>
