<svg width="28" height="28" viewBox="0 0 28 28" xmlns="http://www.w3.org/2000/svg">
    <g fill="none" fill-rule="evenodd">
        <path d="M0 28h28V0H0z"/>
        <path d="m19.816 19.183 1.895-1.964a1.425 1.425 0 0 0 0-1.965h0a1.308 1.308 0 0 0-1.895 0l-3.988 4.133a1.167 1.167 0 0 0-.323.81v3.755c0 .302.236.546.527.546h3.851a.537.537 0 0 0 .528-.546v-.598c0-.303.116-.594.323-.808l3.776-3.914c.207-.214.323-.505.323-.809l.223-7.075c-.066-.744-.69-1.3-1.41-1.255h0c-.682.042-1.223.61-1.255 1.317l-.68 4.444M8.296 19.183 6.401 17.22a1.425 1.425 0 0 1 0-1.965h0a1.308 1.308 0 0 1 1.895 0l3.988 4.133c.207.215.323.506.323.81v3.755a.536.536 0 0 1-.527.546H8.23a.537.537 0 0 1-.529-.546v-.598c0-.303-.116-.594-.323-.808l-3.776-3.914a1.163 1.163 0 0 1-.323-.809l-.223-7.075c.066-.744.69-1.3 1.41-1.255h0c.682.042 1.223.61 1.255 1.317l.68 4.444" stroke="#FFF" stroke-linecap="round" stroke-linejoin="round"/>
        <path d="M16.353 3.015c-.899 0-1.732.347-2.408.98-.675-.633-1.509-.98-2.407-.98-2.014 0-3.593 1.667-3.593 3.796 0 3.209 4.895 6.503 5.453 6.868l.547.358.548-.358c.558-.365 5.452-3.66 5.452-6.868 0-2.13-1.578-3.796-3.592-3.796m0 1c1.338 0 2.592 1.126 2.592 2.796 0 2.76-5 6.03-5 6.03s-5-3.27-5-6.03c0-1.67 1.255-2.796 2.593-2.796.875 0 1.787.48 2.407 1.607.621-1.125 1.532-1.607 2.408-1.607" fill="#FFF"/>
    </g>
</svg>
