<svg width="28" height="28" viewBox="0 0 28 28" xmlns="http://www.w3.org/2000/svg">
    <g fill="none" fill-rule="evenodd">
        <path d="M0 28h28V0H0z"/>
        <path d="M15.518 16.807h-3.035a.482.482 0 0 1-.483-.482v-2.036c0-.266.216-.482.483-.482h3.035c.266 0 .482.216.482.482v2.036a.482.482 0 0 1-.482.482zM10.703 6.409v-1.1c0-.718.58-1.298 1.297-1.298h3.926c.717 0 1.297.58 1.297 1.298v1.1" stroke="#FFF"/>
        <path d="M24.206 6H3.793C2.803 6 2 6.803 2 7.794V14s.337.167 1.002.404v9.137a1.5 1.5 0 0 0 1.5 1.5h19a1.5 1.5 0 0 0 1.5-1.5v-9.068C25.692 14.201 26 14 26 14V7.794C26 6.803 25.197 6 24.206 6m0 1c.438 0 .794.356.794.794v5.596a9.376 9.376 0 0 1-.365.152l-.633.25V23.541a.5.5 0 0 1-.5.5h-19a.5.5 0 0 1-.5-.5v-9.843l-.665-.236A17.319 17.319 0 0 1 3 13.337V7.794C3 7.356 3.356 7 3.793 7h20.413" fill="#FFF"/>
        <path d="M25.314 13.684c-1.176.507-3.952 1.525-9.091 1.73M2.621 13.684c1.176.507 3.952 1.525 9.091 1.73" stroke="#FFF"/>
    </g>
</svg>
