<svg width="50" height="50" viewBox="0 0 50 50" xmlns="http://www.w3.org/2000/svg">
    <g fill="none" fill-rule="evenodd">
        <path fill="#FFF" d="M-494-28H946v167H-494z"/>
        <path fill="#FFF" d="M-494-28H946v167H-494z"/>
        <path d="M18.671 12.611c-.319 0-.639.122-.883.366L6.615 24.15a1.25 1.25 0 0 0 0 1.765l11.173 11.173a1.246 1.246 0 0 0 1.764 0l11.174-11.173a1.247 1.247 0 0 0 0-1.765L19.554 12.977a1.246 1.246 0 0 0-.883-.366m0 1.694L29.4 25.032 18.671 35.76 7.943 25.032l10.728-10.727" fill="#000"/>
        <path d="M10.74 24.72a.449.449 0 1 1-.636.635.449.449 0 0 1 .636-.634M18.993 16.467a.449.449 0 1 1-.635.635.449.449 0 0 1 .635-.635M17.617 17.843a.449.449 0 1 1-.635.634.449.449 0 0 1 .635-.634M16.242 19.218a.449.449 0 1 1-.636.635.449.449 0 0 1 .636-.635M14.866 20.594a.449.449 0 1 1-.635.634.449.449 0 0 1 .635-.634M13.49 21.97a.449.449 0 1 1-.635.634.449.449 0 0 1 .636-.634M12.115 23.345a.449.449 0 1 1-.635.635.449.449 0 0 1 .635-.635M12.113 26.094a.449.449 0 1 1-.635.634.449.449 0 0 1 .635-.634M20.366 17.84a.449.449 0 1 1-.635.635.449.449 0 0 1 .635-.634M18.99 19.216a.449.449 0 1 1-.635.635.449.449 0 0 1 .636-.635M17.615 20.592a.449.449 0 1 1-.635.634.449.449 0 0 1 .635-.634M16.24 21.967a.449.449 0 1 1-.636.635.449.449 0 0 1 .636-.635M14.864 23.343a.449.449 0 1 1-.635.634.449.449 0 0 1 .635-.634M13.488 24.718a.449.449 0 1 1-.635.635.449.449 0 0 1 .635-.635M13.486 27.467a.449.449 0 1 1-.635.635.449.449 0 0 1 .635-.635M21.74 19.214a.449.449 0 1 1-.636.634.449.449 0 0 1 .636-.634M20.364 20.59a.449.449 0 1 1-.635.634.449.449 0 0 1 .635-.634M14.862 26.092a.449.449 0 1 1-.636.634.449.449 0 0 1 .636-.634M14.86 28.84a.449.449 0 1 1-.636.635.449.449 0 0 1 .636-.634M23.113 20.587a.449.449 0 1 1-.635.635.449.449 0 0 1 .635-.635M21.737 21.963a.449.449 0 1 1-.635.634.449.449 0 0 1 .635-.634M16.235 27.465a.449.449 0 1 1-.635.635.449.449 0 0 1 .635-.635M16.233 30.214a.449.449 0 1 1-.635.634.449.449 0 0 1 .635-.634M24.486 21.96a.449.449 0 1 1-.635.635.449.449 0 0 1 .635-.634M23.11 23.336a.449.449 0 1 1-.635.635.449.449 0 0 1 .635-.635M17.608 28.838a.449.449 0 1 1-.635.635.449.449 0 0 1 .635-.635M17.606 31.587a.449.449 0 1 1-.635.635.449.449 0 0 1 .635-.635M25.86 23.334a.449.449 0 1 1-.636.634.449.449 0 0 1 .635-.634M24.484 24.71a.449.449 0 1 1-.635.634.449.449 0 0 1 .635-.634M23.108 26.085a.449.449 0 1 1-.635.635.449.449 0 0 1 .635-.635M21.733 27.46a.449.449 0 1 1-.635.635.449.449 0 0 1 .635-.634M20.357 28.836a.449.449 0 1 1-.635.635.449.449 0 0 1 .635-.635M18.982 30.212a.449.449 0 1 1-.636.634.449.449 0 0 1 .636-.634M18.98 32.96a.449.449 0 1 1-.636.635.449.449 0 0 1 .635-.634M27.233 24.707a.449.449 0 1 1-.636.635.449.449 0 0 1 .636-.635M25.857 26.083a.449.449 0 1 1-.635.634.449.449 0 0 1 .635-.634M24.482 27.458a.449.449 0 1 1-.636.635.449.449 0 0 1 .636-.635M23.106 28.834a.449.449 0 1 1-.635.634.449.449 0 0 1 .635-.634M21.73 30.21a.449.449 0 1 1-.635.634.449.449 0 0 1 .635-.634M20.355 31.585a.449.449 0 1 1-.635.635.449.449 0 0 1 .635-.635M18.99 23.34a.449.449 0 1 1-.636.635.449.449 0 0 1 .635-.635M17.614 24.716a.449.449 0 1 1-.635.634.449.449 0 0 1 .635-.634M20.363 24.714a.449.449 0 1 1-.636.634.449.449 0 0 1 .636-.634M18.987 26.09a.449.449 0 1 1-.635.634.449.449 0 0 1 .635-.635" fill="#000"/>
        <path d="m26.327 17.097 4.12-4.12a1.247 1.247 0 0 1 1.764 0L43.384 24.15a1.247 1.247 0 0 1 0 1.764L32.211 37.088a1.247 1.247 0 0 1-1.764 0l-4.172-4.172" stroke="#000" stroke-width="1.54" stroke-linecap="round"/>
        <path d="M31.956 16.467a.449.449 0 1 1-.635.635.449.449 0 0 1 .635-.635M30.58 17.843a.449.449 0 1 1-.635.634.449.449 0 0 1 .635-.634M29.205 19.218a.449.449 0 1 1-.635.635.449.449 0 0 1 .635-.635M33.33 17.84a.449.449 0 1 1-.636.635.449.449 0 0 1 .635-.634M31.954 19.216a.449.449 0 1 1-.635.635.449.449 0 0 1 .635-.635M30.578 20.592a.449.449 0 1 1-.635.634.449.449 0 0 1 .635-.634M34.703 19.214a.449.449 0 1 1-.636.634.449.449 0 0 1 .636-.634M33.327 20.59a.449.449 0 1 1-.635.634.449.449 0 0 1 .635-.634M36.076 20.587a.449.449 0 1 1-.635.635.449.449 0 0 1 .635-.635M34.7 21.963a.449.449 0 1 1-.635.634.449.449 0 0 1 .635-.634M29.196 30.214a.449.449 0 1 1-.635.634.449.449 0 0 1 .635-.634M37.45 21.96a.449.449 0 1 1-.636.635.449.449 0 0 1 .635-.634M36.074 23.336a.449.449 0 1 1-.636.635.449.449 0 0 1 .636-.635M30.572 28.838a.449.449 0 1 1-.636.635.449.449 0 0 1 .636-.635M30.57 31.587a.449.449 0 1 1-.636.635.449.449 0 0 1 .635-.635M38.823 23.334a.449.449 0 1 1-.636.634.449.449 0 0 1 .636-.634M37.447 24.71a.449.449 0 1 1-.635.634.449.449 0 0 1 .635-.634M36.072 26.085a.449.449 0 1 1-.636.635.449.449 0 0 1 .636-.635M34.696 27.46a.449.449 0 1 1-.635.635.449.449 0 0 1 .635-.634M33.32 28.836a.449.449 0 1 1-.635.635.449.449 0 0 1 .635-.635M31.945 30.212a.449.449 0 1 1-.635.634.449.449 0 0 1 .635-.634M31.943 32.96a.449.449 0 1 1-.636.635.449.449 0 0 1 .636-.634M40.196 24.707a.449.449 0 1 1-.635.635.449.449 0 0 1 .635-.635M38.82 26.083a.449.449 0 1 1-.635.634.449.449 0 0 1 .635-.634M37.445 27.458a.449.449 0 1 1-.635.635.449.449 0 0 1 .635-.635M36.07 28.834a.449.449 0 1 1-.636.634.449.449 0 0 1 .635-.634M34.694 30.21a.449.449 0 1 1-.636.634.449.449 0 0 1 .636-.634M33.318 31.585a.449.449 0 1 1-.635.635.449.449 0 0 1 .635-.635" fill="#000"/>
    </g>
</svg>
