<svg width="50" height="50" xmlns="http://www.w3.org/2000/svg" xmlns:xlink="http://www.w3.org/1999/xlink">
    <defs>
        <path id="a" d="M0 0h28.125v40.781H0z"/>
    </defs>
    <g fill="none" fill-rule="evenodd">
        <path fill="#FFF" d="M-1017-564H423v2539h-1440z"/>
        <path fill="#FFF" d="M-1016-40H424v167h-1440z"/>
        <g opacity=".3">
            <g transform="translate(10.938 4.688)">
                <mask id="b" fill="#fff">
                    <use xlink:href="#a"/>
                </mask>
                <path d="M26.446 36.705a2.375 2.375 0 0 1-2.013 2.365H3.693a2.376 2.376 0 0 1-2.014-2.365V22.037c0-1.191.844-2.177 2.014-2.365h20.74a2.375 2.375 0 0 1 2.013 2.365v14.668zM9.706 6.831c0-.312.365-.662.853-.662h7.007c.488 0 .852.35.852.662v11.134l-8.712-.003V6.832zm-4.087 0c0-2.827 2.216-5.127 4.94-5.127h7.007c2.724 0 4.94 2.3 4.94 5.127v10.946h-2.417V6.83c0-1.282-1.155-2.366-2.523-2.366h-7.007c-1.368 0-2.524 1.084-2.524 2.366v10.946H5.62V6.83zm18.988 11.136h-.43V6.831C24.177 3.064 21.21 0 17.566 0h-7.007c-3.645 0-6.61 3.064-6.61 6.831V17.96H3.63l-.113.007C1.48 18.251 0 19.963 0 22.037v14.668c0 2.074 1.48 3.785 3.518 4.07l21.033.006.056-.006c2.038-.285 3.518-1.996 3.518-4.07V22.037c0-2.074-1.48-3.786-3.518-4.07z" fill="#000" mask="url(#b)"/>
            </g>
            <path d="M27.708 32.067c0-1.142-.898-2.067-2.005-2.067-1.107 0-2.005.925-2.005 2.067 0 .604.255 1.142.655 1.52l-.76 4.51c0 .187.2.34.443.34h3.334c.243 0 .442-.153.442-.34l-.76-4.51c.4-.378.656-.916.656-1.52" fill="#000"/>
        </g>
    </g>
</svg>
