<svg width="28" height="28" viewBox="0 0 28 28" xmlns="http://www.w3.org/2000/svg">
    <g fill="none" fill-rule="evenodd">
        <path d="M0 28h28V0H0z"/>
        <g fill="#FFF">
            <path d="M9.1 4a6.1 6.1 0 0 1 4.538 10.176l-.192.204-.57-.561a5.3 5.3 0 1 0-7.375.172l.195.171-.514.613A6.1 6.1 0 0 1 9.1 4z" fill-rule="nonzero"/>
            <path d="m6.844 11.824.69.69-.69.691-.691-.69.69-.69zm3.453-1.15.691.69-.69.69-.692-.69.691-.69zm-2.302 0 .69.69-.69.69-.691-.69.69-.69zm-2.303 0 .691.69-.69.69-.691-.69.69-.69zm5.756-1.152.691.69-.69.691-.692-.691.691-.69zm-2.302 0 .691.69-.691.69-.691-.69.691-.69zm-2.302 0 .69.69-.69.69-.691-.69.69-.69zM12.6 8.37l.69.69-.69.69-.691-.69.69-.69zm-2.303 0 .691.69-.69.69-.692-.69.691-.69zm-2.302 0 .69.69-.69.69-.691-.69.69-.69zm-2.303 0 .691.69-.69.69-.691-.69.69-.69zm5.756-1.151.691.69-.69.69-.692-.69.691-.69zm-2.302 0 .691.69-.691.69-.691-.69.691-.69zm-2.302 0 .69.69-.69.69-.691-.69.69-.69zm3.453-1.152.691.69-.69.691-.692-.69.691-.69zm-2.302 0 .69.69-.69.691-.691-.69.69-.69z"/>
            <path d="m26.3 11-7 2.967V11l-7 2.967V11l-7.077 3v9H26.3V11zm-15 1.51v2.967l1.39-.589 5.61-2.378v2.967l1.39-.589 5.61-2.378V22H6.223v-7.338L11.3 12.51z"/>
        </g>
    </g>
</svg>
