<svg width="32" height="32" viewBox="0 0 32 32" xmlns="http://www.w3.org/2000/svg" xmlns:xlink="http://www.w3.org/1999/xlink">
    <defs>
        <filter x="-31.2%" y="-6.7%" width="175%" height="116.1%" filterUnits="objectBoundingBox" id="f48yt49ypa">
            <feMorphology radius=".5" operator="dilate" in="SourceAlpha" result="shadowSpreadOuter1"/>
            <feOffset dx="3" dy="3" in="shadowSpreadOuter1" result="shadowOffsetOuter1"/>
            <feGaussianBlur stdDeviation="5" in="shadowOffsetOuter1" result="shadowBlurOuter1"/>
            <feColorMatrix values="0 0 0 0 0 0 0 0 0 0 0 0 0 0 0 0 0 0 0.12 0" in="shadowBlurOuter1"/>
        </filter>
        <rect id="p6lgw3smub" x="0" y="0" width="48" height="224" rx="24"/>
    </defs>
    <g fill="none" fill-rule="evenodd">
        <g transform="translate(-272 -191)">
            <rect fill="#F7F7F7" width="312" height="395" rx="20"/>
            <g fill="#000">
                <text font-family="SamsungOne-400, SamsungOne" font-size="12" transform="translate(24 182)">
                        <tspan x="0" y="42">Enginerring - Software</tspan>
                    </text>
                <text font-family="SamsungSharpSans-Bold, Samsung Sharp Sans" font-size="16" font-weight="bold" transform="translate(24 182)">
                        <tspan x="0" y="16">Category</tspan>
                    </text>
            </g>
        </g>
        <g transform="translate(-8 -176)">
            <use fill="#000" filter="url(#f48yt49ypa)" xlink:href="#p6lgw3smub"/>
            <use fill="#FFF" xlink:href="#p6lgw3smub"/>
        </g>
        <path d="M8.403 19.015a3.952 3.952 0 0 0 0 5.582 3.952 3.952 0 0 0 5.582 0l3.41-3.411a3.952 3.952 0 0 0 0-5.581.658.658 0 1 0-.93.93 2.61 2.61 0 0 1 0 3.72l-3.41 3.411a2.61 2.61 0 0 1-3.721 0 2.61 2.61 0 0 1 0-3.72l3.41-3.411a.658.658 0 1 0-.93-.93l-3.41 3.41zm6.202-6.2a3.952 3.952 0 0 0 0 5.58.658.658 0 1 0 .93-.93 2.61 2.61 0 0 1 0-3.72l3.41-3.411a2.61 2.61 0 0 1 3.721 0 2.61 2.61 0 0 1 0 3.72l-3.41 3.411a.658.658 0 1 0 .93.93l3.41-3.41a3.952 3.952 0 0 0 0-5.582 3.952 3.952 0 0 0-5.58 0l-3.411 3.411z" fill="#000" fill-rule="nonzero"/>
    </g>
</svg>
