<svg width="28" height="28" viewBox="0 0 28 28" xmlns="http://www.w3.org/2000/svg">
    <g fill="none" fill-rule="evenodd">
        <path d="M0 28h28V0H0z"/>
        <path d="M14 4C8.477 4 4 8.477 4 14s4.477 10 10 10 10-4.477 10-10S19.523 4 14 4m0 1c4.963 0 9 4.037 9 9s-4.037 9-9 9-9-4.037-9-9 4.037-9 9-9" fill="#FFF"/>
        <path d="M14 6.273A7.727 7.727 0 0 0 6.273 14 7.727 7.727 0 1 0 14 6.273m0 .75A6.985 6.985 0 0 1 20.977 14c0 3.848-3.13 6.978-6.977 6.978-3.847 0-6.977-3.13-6.977-6.978A6.985 6.985 0 0 1 14 7.023" fill="#FFF"/>
        <path d="M15.632 9.552a4.929 4.929 0 0 1 3.276 4.643" stroke="#FFF" stroke-width=".75" stroke-linecap="round" stroke-linejoin="round"/>
    </g>
</svg>
