<svg width="46" height="46" xmlns="http://www.w3.org/2000/svg">
    <defs>
        <filter color-interpolation-filters="auto" id="a">
            <feColorMatrix in="SourceGraphic" values="0 0 0 0 1.000000 0 0 0 0 1.000000 0 0 0 0 1.000000 0 0 0 1.000000 0"/>
        </filter>
    </defs>
    <g filter="url(#a)" fill="none" fill-rule="evenodd">
        <path d="M0 0h46v46H0z"/>
        <path d="M33.418 0c2.182 0 3.957 1.768 3.957 3.942v36.2c0 2.173-1.775 3.941-3.957 3.941h-18.92c-2.181 0-3.956-1.768-3.956-3.942V3.942C10.542 1.768 12.317 0 14.499 0h18.919zm-.515 1.917H14.056c-.881 0-1.598.714-1.598 1.593v36.105c0 .879.717 1.593 1.598 1.593h18.847c.88 0 1.597-.714 1.597-1.593V3.51c0-.879-.717-1.593-1.597-1.593zm-5.369 34.5c.672 0 1.216.429 1.216.958 0 .53-.544.958-1.216.958h-6.193c-.672 0-1.216-.429-1.216-.958 0-.53.544-.958 1.216-.958h6.193z" fill="#000" fill-rule="nonzero"/>
    </g>
</svg>
