<svg width="46" height="46" xmlns="http://www.w3.org/2000/svg">
    <defs>
        <filter color-interpolation-filters="auto" id="a">
            <feColorMatrix in="SourceGraphic" values="0 0 0 0 1.000000 0 0 0 0 1.000000 0 0 0 0 1.000000 0 0 0 1.000000 0"/>
        </filter>
    </defs>
    <g transform="translate(-.003)" filter="url(#a)" fill="none" fill-rule="evenodd">
        <path d="M38.333 2.156c.896 0 1.627.702 1.675 1.585l.002.092v38.334c0 .895-.701 1.626-1.585 1.674l-.092.003H7.667a1.677 1.677 0 0 1-1.675-1.585l-.002-.092V26.833a2.76 2.76 0 0 1 .483-1.474l.077-.107 3.235-4.044.02-.049a.41.41 0 0 0 .014-.049l.004-.027V3.833c0-.895.702-1.626 1.585-1.674l.092-.003h26.833zm-.718 2.396H12.219v16.531a2.76 2.76 0 0 1-.483 1.493l-.078.108-3.234 4.044-.022.066-.017.068v14.586h29.23V4.552zM17.25 9.583v7.667h-1.917V9.583h1.917zm5.75 0v7.667h-1.917V9.583H23zm5.75 0v7.667h-1.917V9.583h1.917zm5.75 0v7.667h-1.917V9.583H34.5z" fill="#000" fill-rule="nonzero"/>
    </g>
</svg>
