<svg width="32" height="32" xmlns="http://www.w3.org/2000/svg">
    <g fill="#FFF" fill-rule="evenodd">
        <circle opacity=".07" cx="16" cy="16" r="16"/>
        <path d="m14.655 9.001.529.005c1.382.016 1.794.035 1.979.091.77.234 1.444.65 2.048 1.266.849.865 1.278 1.822 1.28 2.854 0 .54.087.739.402.923.198.116.268.128.896.156.375.017.726.055.78.084.18.097.335.33.39.58.025.111.038.437.041 1.049v.362c0 .26-.002.561-.005.905-.016 1.934-.024 2.094-.116 2.423-.221.793-.56 1.39-1.1 1.943-.747.763-1.543 1.17-2.56 1.308-.584.08-6.29.06-6.752-.024-.972-.176-1.944-.797-2.592-1.658a3.777 3.777 0 0 1-.688-1.35l-.034-.12c-.107-.402-.146-.852-.153-2.12V16.56l.005-.847c.016-2.532.029-2.973.096-3.248.356-1.464 1.334-2.605 2.695-3.147.61-.243 1.044-.316 2.4-.32zm2.258 8.742h-1.419c-2.241.004-2.34.022-2.547.21a.88.88 0 0 0-.256.7c.036.239.244.508.467.606.084.036.452.067 1.558.07h.374L16 19.32l2.42-.029.465-.075a.771.771 0 0 0 .156-1.23c-.232-.216-.25-.242-2.127-.244zm-1.987-5.028h-.395c-1.335.001-1.407.02-1.64.256-.382.385-.188 1.13.332 1.273.098.027.76.043 1.59.038 1.343-.008 1.428-.013 1.57-.103.265-.168.384-.377.384-.675 0-.33-.127-.537-.418-.684-.16-.082-.223-.1-.943-.104l-.303-.001h-.373z" fill-rule="nonzero"/>
    </g>
</svg>
