<svg width="28" height="28" viewBox="0 0 28 28" xmlns="http://www.w3.org/2000/svg">
    <g fill="none" fill-rule="evenodd">
        <path d="M0 28h28V0H0z"/>
        <path d="M15.25 6.5a1.25 1.25 0 1 1-2.5-.001 1.25 1.25 0 0 1 2.5 0" fill="#FFF"/>
        <path stroke="#FFF" stroke-linecap="round" stroke-linejoin="round" d="M10 19v6.5M14 19v6.5M18 19v6.5"/>
        <path stroke="#FFF" stroke-width=".75" d="M6.5 10h15"/>
        <path d="M17.91 3H10.09a1.34 1.34 0 0 0-.986.433l-2.25 2.45c-.227.248-.353.57-.353.906V17.66C6.5 18.4 7.099 19 7.839 19h12.323c.739 0 1.338-.6 1.338-1.34V6.79c0-.335-.126-.658-.353-.905l-2.25-2.451A1.34 1.34 0 0 0 17.91 3m0 1c.095 0 .185.04.249.11l2.25 2.45a.34.34 0 0 1 .09.229V17.66a.34.34 0 0 1-.338.339H7.839a.34.34 0 0 1-.34-.34V6.79a.34.34 0 0 1 .09-.23l2.25-2.45a.339.339 0 0 1 .25-.11h7.822" fill="#FFF"/>
    </g>
</svg>
