<?xml version="1.0" encoding="UTF-8"?>
<svg width="24px" height="24px" viewBox="0 0 24 24" version="1.1" xmlns="http://www.w3.org/2000/svg" xmlns:xlink="http://www.w3.org/1999/xlink">
    <title>0BF8D09B-C080-43C4-B875-4BE149287526</title>
    <g id="🟢v2.1" stroke="none" stroke-width="1" fill="none" fill-rule="evenodd">
        <g id="DSC-Careers-Footer(QR)-case" transform="translate(-1231.000000, -816.000000)">
            <g id="DSC-Careers-Footer(1QR)-PC" transform="translate(117.000000, 456.000000)">
                <g id="Footer-/-DSC-/-PC" transform="translate(0.000000, 43.000000)">
                    <g id="Group_02" transform="translate(24.000000, 317.000000)">
                        <g id="Right" transform="translate(916.000000, 0.000000)">
                            <g id="Share" transform="translate(72.000000, 0.000000)">
                                <g id="Icon-/-Share-/-Weibo-/-WT" transform="translate(102.000000, 0.000000)">
                                    <circle id="Oval-Copy-2" fill="#EDEDED" cx="12" cy="12" r="12"></circle>
                                    <path d="M17.9883161,9.99096403 C18.0403658,10.6242427 17.9266437,11.3831719 17.4822527,11.4204483 C16.7570555,11.4811794 17.1354002,10.7293703 17.1450229,10.2770284 C17.1409255,9.04874488 16.0999312,8.05510187 14.8172186,8.05510814 C14.486987,8.05510814 13.7202375,8.2645257 13.8383336,7.61030525 C13.8916955,7.32130902 14.1515068,7.32549737 14.4117555,7.29282823 C15.267453,7.15124717 16.1456849,7.364268 16.8278077,7.87885732 C17.5099305,8.39344665 17.9317738,9.16119474 17.9883161,9.99096403 Z M14.7497649,11.6335108 C15.5823344,12.0776311 16.582196,12.2988339 16.4166331,13.6170483 C16.3494879,13.9804387 16.2018442,14.3245187 15.984354,14.6244641 C14.576421,16.5449845 10.3318725,17.3509172 7.68156935,15.8933794 C6.79280352,15.4025321 5.87204904,14.6857664 6.01470114,13.2582368 C6.13703613,12.0300468 6.98387088,11.0783603 7.81730498,10.2677121 C8.56475665,9.46901104 9.52333194,8.89448542 10.5838912,8.6095485 C11.8167512,8.305609 12.1833239,9.3108814 11.8491721,10.3002924 C12.5641618,10.2535654 14.0797323,9.47506875 14.7497649,10.2351319 C15.0450115,10.5703655 14.9317544,11.1700995 14.7497649,11.6335108 Z M13.8245995,14.8500064 C14.1460644,14.4998439 14.3321234,14.0410426 14.3478261,13.5597866 C14.3444313,11.915269 12.2956575,11.3079015 10.6826936,11.4418539 C9.94559475,11.4759213 9.22724006,11.6915534 8.58808976,12.0706016 C7.9830205,12.374132 7.53126681,12.9269366 7.34473697,13.5920748 C7.01374203,15.2427009 8.78753543,16.0189272 10.0936924,16.1070653 C11.6001437,16.2096022 13.1082925,15.6716107 13.8245995,14.8495701 L13.8245995,14.8500064 Z M16.1567903,9.98736054 C16.2258416,10.4666623 16.0821979,10.8820571 15.7953366,10.9003162 C15.31624,10.9306097 15.4969668,10.5861765 15.4662774,10.1765914 C15.4313141,9.91405551 15.2740812,9.6818357 15.0400348,9.54706693 C14.6657939,9.38107499 14.0869565,9.669071 14.0869565,9.16943527 C14.0869565,8.79844329 14.4232619,8.83745139 14.6129398,8.82334208 C15.3652793,8.74372381 16.0474769,9.25789763 16.1567903,9.98694556 L16.1567903,9.98736054 Z M12.4304605,13.2065028 C13.1499287,15.2244894 9.40107442,16.1630206 8.71532442,14.4285356 C8.25640615,13.2689062 9.35816031,12.3464925 10.505456,12.2349102 C11.3090506,12.0925385 12.1095173,12.49638 12.4304605,13.2060895 L12.4304605,13.2065028 Z M10.6956522,13.6074184 C10.7604519,13.7247722 10.8899376,13.7808 11.0118372,13.7442299 C11.1337368,13.7076599 11.2179154,13.5875325 11.2173913,13.4508967 C11.1768093,13.1649837 10.6927536,13.2072445 10.6961353,13.6068967 L10.6956522,13.6074184 Z M10.1915936,14.7926193 C10.8587207,14.6583514 10.9481343,13.5973557 9.94142093,13.7965663 C9.09639324,13.9623095 9.25993204,14.9798773 10.1920569,14.7922209 L10.1915936,14.7926193 Z" id="ic_weibo" fill="#000000"></path>
                                </g>
                            </g>
                        </g>
                    </g>
                </g>
            </g>
        </g>
    </g>
</svg>