<svg width="28" height="28" viewBox="0 0 28 28" xmlns="http://www.w3.org/2000/svg">
    <g fill="none" fill-rule="evenodd">
        <path d="M0 28h28V0H0z"/>
        <path d="M16.949 5.945a.742.742 0 0 0-.217.033L3.37 10.11c-.34.105-.574.446-.574.834v3.188c0 .388.235.73.574.834l13.406 4.145a.71.71 0 0 0 .217.033c.286 0 .556-.17.694-.462.428-.9 1.109-2.843 1.109-6.078 0-3.012-.715-5.158-1.14-6.167a.773.773 0 0 0-.707-.492m-.142 1.057c.4 1.002.989 2.934.989 5.602 0 2.867-.556 4.621-.938 5.486L3.796 14.051v-3.026l13.01-4.023" fill="#FFF"/>
        <path d="M5.866 14.69v7.45c0 .445.328.805.732.805h1.81c.316 0 .595-.22.695-.549l1.908-6.119-5.145-1.588zm1 1.354 2.892.893-1.562 5.008h-1.33v-5.9z" fill="#FFF"/>
        <path stroke="#FFF" stroke-linecap="round" stroke-linejoin="round" d="M21.107 12.836h3.5M21.107 8.661l3.03-1.75M21.107 17.011l3.03 1.75"/>
    </g>
</svg>
