<svg width="96" height="96" viewBox="0 0 96 96" fill="none" xmlns="http://www.w3.org/2000/svg">
<circle cx="48" cy="48" r="47.5" stroke="white" stroke-linejoin="round"/>
<path fill-rule="evenodd" clip-rule="evenodd" d="M45.2552 29.9119C45.2053 28.991 44.441 28.2578 43.5078 28.2578H34.5078L34.4119 28.2604C33.491 28.3103 32.7578 29.0746 32.7578 30.0078V66.0078L32.7604 66.1037C32.8103 67.0246 33.5746 67.7578 34.5078 67.7578H43.5078L43.6037 67.7552C44.5246 67.7053 45.2578 66.941 45.2578 66.0078V30.0078L45.2552 29.9119ZM63.2552 29.9119C63.2053 28.991 62.441 28.2578 61.5078 28.2578H52.5078L52.4119 28.2604C51.491 28.3103 50.7578 29.0746 50.7578 30.0078V66.0078L50.7604 66.1037C50.8103 67.0246 51.5746 67.7578 52.5078 67.7578H61.5078L61.6037 67.7552C62.5246 67.7053 63.2578 66.941 63.2578 66.0078V30.0078L63.2552 29.9119Z" fill="white"/>
</svg>
