<svg width="28" height="28" viewBox="0 0 28 28" xmlns="http://www.w3.org/2000/svg">
    <g fill="none" fill-rule="evenodd">
        <path d="M0 28h28V0H0z"/>
        <g fill="#FFF">
            <path d="M22.513 4H5.488C4.666 4 4 4.666 4 5.487v17.026C4 23.334 4.666 24 5.488 24h17.025c.82 0 1.487-.666 1.487-1.487V5.487C24 4.666 23.334 4 22.513 4m0 1c.269 0 .487.219.487.487v17.026a.488.488 0 0 1-.487.487H5.488A.488.488 0 0 1 5 22.513V5.487C5 5.219 5.219 5 5.488 5h17.025"/>
            <path d="M17.21 6.65h-4.725a.31.31 0 0 0-.296.22l-2.542 8.472a.31.31 0 0 0 .297.398h2.311v5.301c0 .192.155.31.313.31a.302.302 0 0 0 .258-.144l5.49-8.628a.31.31 0 0 0-.26-.475h-3.074l2.504-5.007a.31.31 0 0 0-.277-.448m-.713.75-2.184 4.37-.543 1.085h3.484l-4.248 6.674V14.99H10.536l2.277-7.59h3.683"/>
        </g>
    </g>
</svg>
