<svg width="28" height="28" viewBox="0 0 28 28" xmlns="http://www.w3.org/2000/svg">
    <g fill="none" fill-rule="evenodd">
        <path d="M0 28h28V0H0z"/>
        <path d="M22.916 5H5.084A3.084 3.084 0 0 0 2 8.084v16.203a.709.709 0 0 0 1.211.502L6 22h16.916A3.084 3.084 0 0 0 26 18.916V8.084A3.084 3.084 0 0 0 22.916 5m0 1C24.065 6 25 6.935 25 8.084v10.832A2.087 2.087 0 0 1 22.916 21H5.586l-.293.293L3 23.586V8.084C3 6.935 3.935 6 5.084 6h17.832" fill="#FFF"/>
        <path d="m16.44 14.95.531 2.48a.413.413 0 0 1-.618.438l-2.168-1.312a.413.413 0 0 0-.421-.004l-2.193 1.27a.413.413 0 0 1-.609-.45l.578-2.469a.41.41 0 0 0-.126-.4l-1.886-1.695a.412.412 0 0 1 .241-.718l2.526-.213a.414.414 0 0 0 .343-.244l1.027-2.317a.413.413 0 0 1 .758.007l.983 2.337a.41.41 0 0 0 .338.25l2.521.262c.36.037.501.486.228.722l-1.919 1.657a.413.413 0 0 0-.134.4z" stroke="#FFF" stroke-width=".75"/>
    </g>
</svg>
