<svg width="50" height="50" xmlns="http://www.w3.org/2000/svg" xmlns:xlink="http://www.w3.org/1999/xlink">
    <defs>
        <path id="a" d="M0 0h28.125v28.125H0z"/>
    </defs>
    <g fill="none" fill-rule="evenodd">
        <path fill="#FFF" d="M-781-564H659v2539H-781z"/>
        <path fill="#FFF" d="M-780-40H660v167H-780z"/>
        <g transform="translate(10.938 10.938)" opacity=".3">
            <mask id="b" fill="#fff">
                <use xlink:href="#a"/>
            </mask>
            <path d="m11.648 6.163.354-.313c.106-.072.411-.257.736-.282h2.8c.088.016.393.08.644.245l.463.514c.094.152.192.357.209.57v3.19c-.015.183-.06.462-.206.677l-.181.162-.002-.002s-.413.339-.841.351v.004h-3.196c-.074-.015-.535-.114-.802-.404v.002l-.08-.087a1.628 1.628 0 0 1-.275-.608V6.883c.025-.096.132-.472.377-.72m4.829 15.799a1.36 1.36 0 0 1-.048.053c-.246.254-.65.513-1.012.547-.128.012-.272-.006-.402-.006h-1.419c-.32 0-.691.053-1.008 0-.2-.034-.419-.096-.586-.213-.089-.062-.163-.142-.236-.221-.238-.257-.465-.53-.495-.894v-3.19c0-.64.602-1.169 1.23-1.192h3.197c.073.015.535.114.802.402l.078.087c.09.127.228.355.276.608v2.69c0 .503-.032.939-.377 1.329m5.328-10.754h.173a.443.443 0 0 0 .444-.445V7.125c.02-.104.116-.52.374-.778l.687-.541c.127-.078.38-.209.649-.238h3.548c.245 0 .445-.2.445-.443V.445c0-.245-.2-.445-.445-.445h-4.679c-.244 0-.445.2-.445.445V4.28c-.002.031-.043.457-.264.764l-.515.406c-.156.088-.362.18-.58.19H18.26c-.069-.013-.457-.1-.726-.334l-.32-.353c-.005-.008-.341-.403-.368-.823V.445c0-.245-.2-.445-.445-.445h-4.68c-.243 0-.444.2-.444.445v3.733s-.034.427-.246.745l-.812.716H6.836c-.167-.043-.49-.15-.7-.372l-.24-.266c-.093-.122-.306-.437-.327-.77V.445C5.569.2 5.369 0 5.124 0H.444C.2 0 0 .2 0 .445v4.68c0 .244.2.443.445.443h3.722c.006.002.349.052.638.231l.69.765c.093.15.19.348.208.56v3.639c0 .244.2.444.444.445H9.37c.342 0 .63.01.926.232.142.107.267.238.387.369.169.186.34.376.458.596.131.244.14.462.133.73-.008.3.004.605.004.908 0 .598.108 1.277-.301 1.773-.212.258-.495.467-.744.686-.23.204-.5.36-.809.4l-3.105.015h-.172a.435.435 0 0 0-.256.092.437.437 0 0 0-.188.353V21c0 .422-.363.78-.666 1.015-.319.245-.628.497-1.044.54H.445A.444.444 0 0 0 0 23v4.68c0 .244.2.445.445.445h4.679a.447.447 0 0 0 .445-.445v-3.834c0-.668.703-1.33 1.36-1.36h2.936c.245 0 .542.188.72.34.327.28.665.726.693 1.17v3.684c0 .244.2.445.445.445h4.68a.447.447 0 0 0 .444-.445v-3.733s.034-.427.246-.745c.236-.208.488-.517.768-.659a.85.85 0 0 1 .418-.064c.737.034 1.483.006 2.222.006.21 0 .421.004.63 0 .388-.006.78.253 1.027.539.402.465.398.992.398 1.564V27.68c0 .244.2.445.445.445h4.68a.447.447 0 0 0 .444-.445V23a.442.442 0 0 0-.13-.313.443.443 0 0 0-.315-.131h-2.816c-.436 0-.943.075-1.344-.124-.21-.105-.373-.283-.53-.456-.248-.272-.543-.594-.57-.98-.01-.147.002-.303.002-.451v-3.183c0-.245-.2-.445-.444-.445H18.42c-.421 0-.7-.306-.968-.582-.283-.291-.57-.619-.605-1.042V13.46c0-.287-.059-.643.062-.91.109-.24.433-.436.628-.609l.423-.375c.09-.068.44-.34.806-.355" fill="#000" mask="url(#b)"/>
        </g>
    </g>
</svg>
