<svg width="24" height="25" viewBox="0 0 24 25" fill="none" xmlns="http://www.w3.org/2000/svg">
<path d="M6.92578 15.5C7.47807 15.5 7.92578 15.0523 7.92578 14.5C7.92578 13.9477 7.47807 13.5 6.92578 13.5C6.3735 13.5 5.92578 13.9477 5.92578 14.5C5.92578 15.0523 6.3735 15.5 6.92578 15.5Z" fill="black"/>
<path d="M16.9258 15.5C17.4781 15.5 17.9258 15.0523 17.9258 14.5C17.9258 13.9477 17.4781 13.5 16.9258 13.5C16.3735 13.5 15.9258 13.9477 15.9258 14.5C15.9258 15.0523 16.3735 15.5 16.9258 15.5Z" fill="black"/>
<path d="M20.725 10.525H20.925C21.675 10.525 22.275 9.925 22.275 9.175C22.275 8.425 21.875 8.275 21.375 8.275H20.525L19.7 5.45C19.375 4.15 18.175 3.25 16.85 3.25H7.25C5.925 3.25 4.725 4.15 4.35 5.425L3.525 8.25H2.675C2.175 8.25 1.775 8.65 1.775 9.15C1.775 9.9 2.375 10.5 3.125 10.5H3.325C2.2 10.975 1.375 12.1 1.375 13.4V17.05C1.375 18.775 2.775 20.175 4.5 20.175H4.875V20.25C4.875 21.075 5.55 21.75 6.375 21.75C7.2 21.75 7.875 21.075 7.875 20.25V20.175H15.875V20.25C15.875 21.075 16.55 21.75 17.375 21.75C18.2 21.75 18.875 21.075 18.875 20.25V20.175H19.5C21.225 20.175 22.625 18.775 22.625 17.05V13.4C22.625 12.1 21.825 10.975 20.675 10.5L20.725 10.525ZM5.4 9L6.275 5.975C6.4 5.55 6.8 5.25 7.225 5.25H16.85C17.3 5.25 17.7 5.55 17.8 5.975L18.675 9C18.7 9.1 18.725 9.175 18.725 9.275V10.275H5.375V9.275C5.375 9.175 5.375 9.075 5.425 9H5.4ZM20.675 17.15C20.675 17.725 20.2 18.175 19.65 18.175H4.45C3.875 18.175 3.425 17.7 3.425 17.15V13.325C3.425 12.75 3.9 12.3 4.45 12.3H19.625C20.2 12.3 20.65 12.775 20.65 13.325V17.15H20.675Z" fill="black"/>
</svg>
