<svg width="50" height="50" viewBox="0 0 50 50" xmlns="http://www.w3.org/2000/svg">
    <g fill="none" fill-rule="evenodd">
        <path fill="#FFF" d="M-140-28h1440v167H-140z"/>
        <path fill="#FFF" d="M-140-28h1440v167H-140z"/>
        <g fill="#000">
            <path d="M41.537 14.844H8.462c-1.222 0-2.212.99-2.212 2.212v15.888c0 1.222.99 2.212 2.212 2.212h13.413c.647 0 1.172-.525 1.172-1.173v-1.674c0-.059.048-.107.107-.107h3.691c.06 0 .108.048.108.107v1.674c0 .648.525 1.173 1.173 1.173h13.411c1.222 0 2.213-.99 2.213-2.212V17.056c0-1.222-.99-2.212-2.213-2.212m0 1.562c.358 0 .65.292.65.65v15.888c0 .358-.292.65-.65.65H28.515v-1.285c0-.92-.748-1.67-1.67-1.67h-3.69c-.92 0-1.67.75-1.67 1.67v1.285H8.461a.652.652 0 0 1-.65-.65V17.056c0-.358.292-.65.65-.65h33.075"/>
            <path d="M14.781 17.897h-4.054c-.607 0-1.097.492-1.097 1.099v8.74c0 .607.49 1.099 1.097 1.099h4.054c.607 0 1.099-.492 1.099-1.099v-8.74c0-.607-.492-1.099-1.099-1.099zm-3.98 9.766h3.907v-8.594h-3.906v8.594zM22.945 17.897h-4.054c-.607 0-1.097.492-1.097 1.099v8.74c0 .607.49 1.099 1.097 1.099h4.054c.607 0 1.099-.492 1.099-1.099v-8.74c0-.607-.492-1.099-1.099-1.099zm-3.98 9.766h3.907v-8.594h-3.906v8.594zM31.11 17.897h-4.055c-.607 0-1.097.492-1.097 1.099v8.74c0 .607.49 1.099 1.097 1.099h4.054c.606 0 1.099-.492 1.099-1.099v-8.74c0-.607-.493-1.099-1.099-1.099zm-3.98 9.766h3.906v-8.594H27.13v8.594zM39.273 17.897H35.22c-.607 0-1.097.492-1.097 1.099v8.74c0 .607.49 1.099 1.097 1.099h4.054c.607 0 1.099-.492 1.099-1.099v-8.74c0-.607-.492-1.099-1.099-1.099zm-3.98 9.766H39.2v-8.594h-3.906v8.594z"/>
        </g>
    </g>
</svg>
