<svg width="96" height="96" viewBox="0 0 96 96" fill="none" xmlns="http://www.w3.org/2000/svg">
<circle cx="48" cy="48" r="47.5" stroke="white" stroke-linejoin="round"/>
<path d="M36.6956 27.4566C37.5462 27.058 38.5273 27.1362 39.3407 27.644L39.4505 27.7159L65.626 45.6507C66.4146 46.1915 66.8825 47.0533 66.8825 47.9955C66.8825 48.8952 66.4559 49.7216 65.7311 50.2646L65.6255 50.3402L39.4503 68.2754C38.9646 68.608 38.4043 68.7875 37.8345 68.7875C37.3984 68.7875 36.9704 68.6824 36.5804 68.4772C35.7029 68.0145 35.1689 67.1253 35.1276 66.1216L35.125 65.9955V29.9955C35.125 28.9825 35.6242 28.0706 36.4734 27.5734L36.5813 27.5134L36.6956 27.4566Z" fill="white"/>
</svg>
