<svg width="24" height="24" xmlns="http://www.w3.org/2000/svg">
    <path d="M11.912 0c6.578 0 11.912 5.373 11.912 12S18.49 24 11.912 24C5.333 24 0 18.627 0 12S5.333 0 11.912 0zm-.524 12.527H5.636c.143 5.055 2.326 9.158 5.088 10.088.22.025.44.043.664.054V12.527zm6.8 0h-5.753V22.67c.224-.011.445-.03.665-.054 2.762-.93 4.945-5.033 5.087-10.087zm4.314 0h-3.267c-.103 3.867-1.339 7.275-3.209 9.32a10.684 10.684 0 0 0 6.476-9.32zm-17.914 0H1.322a10.683 10.683 0 0 0 6.475 9.32c-1.87-2.045-3.105-5.453-3.209-9.32zm3.21-10.375-.013.006a10.683 10.683 0 0 0-6.463 9.315h3.266c.104-3.867 1.339-7.275 3.21-9.32zm3.59-.82c-.223.01-.445.028-.664.053-2.762.93-4.945 5.033-5.088 10.088h5.752V1.33zm1.047 0v10.14h5.752c-.142-5.054-2.325-9.157-5.087-10.087-.22-.025-.441-.043-.665-.054zm3.591.82.062.068c1.835 2.053 3.045 5.428 3.147 9.253h3.267a10.683 10.683 0 0 0-6.476-9.32z" fill="#000" fill-rule="nonzero"/>
</svg>
