<svg width="50" height="50" viewBox="0 0 50 50" xmlns="http://www.w3.org/2000/svg">
    <g fill="none" fill-rule="evenodd">
        <path fill="#FFF" d="M-897-28H543v167H-897z"/>
        <path fill="#FFF" d="M-897-28H543v167H-897z"/>
        <path d="M3.125 46.875h43.75V3.125H3.125z"/>
        <path d="M25 9.375C16.37 9.375 9.375 16.37 9.375 25c0 8.63 6.995 15.625 15.625 15.625 8.63 0 15.625-6.995 15.625-15.625 0-8.63-6.995-15.625-15.625-15.625m0 1.563c7.755 0 14.063 6.307 14.063 14.062 0 7.755-6.308 14.063-14.063 14.063-7.755 0-14.063-6.308-14.063-14.063 0-7.755 6.308-14.063 14.063-14.063" fill="#000"/>
        <path d="M25 12.926c-6.669 0-12.073 5.406-12.073 12.074S18.33 37.075 25 37.075c6.669 0 12.073-5.407 12.073-12.075 0-6.668-5.404-12.074-12.073-12.074m0 1.172c6.01 0 10.902 4.89 10.902 10.902S31.01 35.903 25 35.903c-6.01 0-10.902-4.891-10.902-10.903 0-6.011 4.891-10.902 10.902-10.902" fill="#000"/>
        <path d="M27.55 18.05a7.701 7.701 0 0 1 5.12 7.255" stroke="#000" stroke-width="1.155" stroke-linecap="round" stroke-linejoin="round"/>
    </g>
</svg>
