<svg width="28" height="28" viewBox="0 0 28 28" xmlns="http://www.w3.org/2000/svg">
    <g fill="none" fill-rule="evenodd">
        <path d="M0 28h28V0H0z"/>
        <g stroke="#FFF" stroke-linecap="round" stroke-linejoin="round">
            <path d="M4.59 16.28a7.115 7.115 0 0 1-2.533-5.473c0-3.895 3.07-7.052 6.857-7.052 2.011 0 3.82.89 5.074 2.307"/>
            <path d="M4.957 17.55h0a1.31 1.31 0 0 1 0-1.816l1.129-1.16a1.224 1.224 0 0 1 1.765 0h0a1.31 1.31 0 0 1 0 1.814L6.72 17.55a1.224 1.224 0 0 1-1.764 0zM6.796 19.441h0a1.31 1.31 0 0 1 0-1.815l1.13-1.16a1.224 1.224 0 0 1 1.764 0h0a1.31 1.31 0 0 1 0 1.814l-1.129 1.161a1.224 1.224 0 0 1-1.765 0zM8.636 21.333h0a1.31 1.31 0 0 1 0-1.815l1.129-1.161a1.224 1.224 0 0 1 1.765 0h0a1.31 1.31 0 0 1 0 1.815l-1.129 1.161a1.224 1.224 0 0 1-1.765 0zM10.476 23.225h0a1.31 1.31 0 0 1 0-1.815l1.129-1.161a1.224 1.224 0 0 1 1.765 0h0a1.31 1.31 0 0 1 0 1.815l-1.13 1.16a1.224 1.224 0 0 1-1.764 0zM22.85 16.777c1.927-1.248 3.207-3.456 3.207-5.97 0-3.895-3.07-7.052-6.858-7.052-2.07 0-3.927.943-5.184 2.435l-1.162 1.23-2.246 2.31a1.74 1.74 0 0 0 0 2.412l.036.037a1.627 1.627 0 0 0 2.346 0l1.84-1.809h2.235l2.71 2.787v.001l2.358 2.424"/>
            <path d="m13.307 17.9 3.563 3.665a1.31 1.31 0 0 1 0 1.815h0a1.224 1.224 0 0 1-1.765 0l-1.402-1.443M15.147 16.009l3.563 3.664a1.31 1.31 0 0 1 0 1.815h0a1.224 1.224 0 0 1-1.765 0l-3.563-3.664M16.987 14.117l3.563 3.664a1.31 1.31 0 0 1 0 1.815h0a1.224 1.224 0 0 1-1.765 0l-3.563-3.664M18.826 12.225l3.563 3.664a1.31 1.31 0 0 1 0 1.815h0a1.224 1.224 0 0 1-1.765 0l-3.563-3.664M17.341 10.63l1.83-1.882"/>
        </g>
    </g>
</svg>
