<svg width="28" height="28" viewBox="0 0 28 28" xmlns="http://www.w3.org/2000/svg">
    <g fill="none" fill-rule="evenodd">
        <path d="M0 28h28V0H0z"/>
        <path stroke="#FEFEFE" stroke-linecap="round" stroke-linejoin="round" d="m18.578 11.471 5.613 2.482-10.134 4.584-10.11-4.584 5.532-2.452"/>
        <path fill="#FEFEFE" d="m13.374 21.976.789.336.788-.338-.789-.332zM11.9 21.33l.794.338.792-.338-.793-.334zM10.417 20.68l.798.34.798-.338-.8-.336zM8.924 20.025l.803.343.802-.338-.803-.338zM7.421 19.367l.808.345.807-.338-.808-.34zM14.84 21.331l.785.336.78-.336-.78-.331zM16.294 20.69l.782.336.776-.334-.777-.332zM17.742 20.052l.776.337.77-.332-.77-.332zM8.923 18.654l.804.345.802-.335-.803-.34zM17.74 18.706l.777.338.77-.33-.77-.333zM19.18 19.42l.77.335.767-.33-.767-.332z"/>
        <path stroke="#FEFEFE" stroke-linecap="round" stroke-linejoin="round" d="m18.31 16.615 5.881 2.6L14.056 23.8 3.947 19.215l5.644-2.502M24.191 8.815l-10.134 4.583-10.11-4.583 10.11-4.48z"/>
        <path stroke="#FEFEFE" stroke-width=".75" stroke-linecap="round" stroke-linejoin="round" d="m8.077 9.063 6.544-2.878M9.891 9.891l6.544-2.878M11.704 10.72l6.544-2.879M13.517 11.547l6.544-2.878"/>
    </g>
</svg>
