<svg width="28" height="28" viewBox="0 0 28 28" xmlns="http://www.w3.org/2000/svg">
    <g fill="none" fill-rule="evenodd">
        <path d="M0 28h28V0H0z"/>
        <path d="M19.972 5.497H8.184a2.69 2.69 0 0 0-2.687 2.687v11.634a2.69 2.69 0 0 0 2.687 2.687h11.788a2.69 2.69 0 0 0 2.687-2.687V8.184a2.69 2.69 0 0 0-2.687-2.687m0 1c.928 0 1.687.759 1.687 1.687v11.634c0 .928-.76 1.687-1.687 1.687H8.184a1.692 1.692 0 0 1-1.687-1.687V8.184c0-.928.759-1.687 1.687-1.687h11.788" fill="#FFF"/>
        <path stroke="#FFF" stroke-linecap="round" stroke-linejoin="round" d="M3.078 10.896h2.716M3.078 14.129h2.716M3.078 17.36h2.716M22.362 10.896h2.716M22.362 14.129h2.716M22.362 17.36h2.716M10.73 5.659v-2.69M13.997 5.659v-2.69M17.262 5.659v-2.69M10.73 24.97v-2.69"/>
        <path stroke="#FFF" stroke-width=".75" stroke-linecap="round" stroke-linejoin="round" d="M13.997 12.966V24.97"/>
        <path stroke="#FFF" stroke-linecap="round" stroke-linejoin="round" d="M17.262 24.97v-2.69"/>
        <path d="M19.225 12.966a1.04 1.04 0 0 1-1.046 1.035 1.04 1.04 0 0 1-1.045-1.035 1.04 1.04 0 0 1 1.045-1.035 1.04 1.04 0 0 1 1.046 1.035zM10.86 12.966a1.04 1.04 0 0 1-1.046 1.035 1.04 1.04 0 0 1-1.046-1.035 1.04 1.04 0 0 1 1.045-1.035 1.04 1.04 0 0 1 1.046 1.035zM15.042 11.93a1.04 1.04 0 0 1-1.046 1.036 1.04 1.04 0 0 1-1.045-1.035 1.04 1.04 0 0 1 1.045-1.035 1.04 1.04 0 0 1 1.046 1.035z" stroke="#FFF" stroke-width=".75" stroke-linecap="round" stroke-linejoin="round"/>
        <path stroke="#FFF" stroke-width=".75" d="M18.179 14.001v2.07L16.478 17.2v4.696M9.814 14.001v2.07l1.7 1.128v4.696"/>
    </g>
</svg>
