<svg width="24" height="24" viewBox="0 0 24 24" xmlns="http://www.w3.org/2000/svg">
    <g fill="#000" fill-rule="evenodd">
        <circle opacity=".07" cx="12" cy="12" r="12"/>
        <g fill-rule="nonzero">
            <path d="M8.948 9.25c-.079 0-.144.026-.177.076-.035.052-.03.12.007.187l.878 1.426v.007l-1.38 2.284c-.036.067-.034.135 0 .187.033.05.092.083.17.083h1.298c.194 0 .288-.123.354-.235l1.402-2.326-.893-1.46c-.064-.109-.162-.229-.361-.229H8.948zM14.398 7.75c-.173 0-.248.115-.31.234L11.5 12.82l1.652 3.196c.058.108.147.233.325.233h1.161c.07 0 .125-.028.154-.078.031-.053.03-.122-.002-.19l-1.639-3.157a.007.007 0 0 1 0-.008l2.574-4.8c.032-.067.033-.136.003-.189-.03-.05-.085-.078-.155-.078h-1.175z"/>
        </g>
    </g>
</svg>
