<svg width="28" height="28" viewBox="0 0 28 28" xmlns="http://www.w3.org/2000/svg">
    <g fill="none" fill-rule="evenodd">
        <path d="M0 28h28V0H0z"/>
        <path d="M21.932 5.818H6.067A2.067 2.067 0 0 0 4 7.886v12.228c0 1.142.925 2.068 2.067 2.068h15.865A2.068 2.068 0 0 0 24 20.114V7.886a2.068 2.068 0 0 0-2.068-2.068m0 1A1.07 1.07 0 0 1 23 7.886v12.228a1.07 1.07 0 0 1-1.068 1.068H6.067A1.069 1.069 0 0 1 5 20.114V7.886c0-.589.48-1.068 1.067-1.068h15.865" fill="#FFF"/>
        <path d="M6.893 11.893V9.94c0-.61.495-1.105 1.106-1.105h2.2M21.107 16.108v1.951c0 .611-.495 1.107-1.106 1.107h-2.2" stroke="#FFF" stroke-width=".75" stroke-linecap="round" stroke-linejoin="round"/>
    </g>
</svg>
