<svg xmlns="http://www.w3.org/2000/svg" width="96" height="96" viewBox="0 0 96 96">
    <defs>
        <filter id="xwadeew0ga" width="153.1%" height="153.1%" x="-26.6%" y="-26.6%" filterUnits="objectBoundingBox">
            <feOffset in="SourceAlpha" result="shadowOffsetOuter1"/>
            <feGaussianBlur in="shadowOffsetOuter1" result="shadowBlurOuter1" stdDeviation="6.5"/>
            <feColorMatrix in="shadowBlurOuter1" result="shadowMatrixOuter1" values="0 0 0 0 0 0 0 0 0 0 0 0 0 0 0 0 0 0 0.24341674 0"/>
            <feMerge>
                <feMergeNode in="shadowMatrixOuter1"/>
                <feMergeNode in="SourceGraphic"/>
            </feMerge>
        </filter>
    </defs>
    <g fill="none" fill-rule="evenodd">
        <g fill="#000" fill-rule="nonzero">
            <g>
                <g transform="translate(-672.000000, -581.000000) translate(142.000000, 136.000000) translate(530.000000, 445.000000)">
                    <path d="M48 6.34c23.008 0 41.66 18.652 41.66 41.66 0 23.008-18.652 41.66-41.66 41.66C24.992 89.66 6.34 71.008 6.34 48 6.34 24.992 24.992 6.34 48 6.34zm0 3.9c-20.854 0-37.76 16.906-37.76 37.76S27.146 85.76 48 85.76 85.76 68.854 85.76 48 68.854 10.24 48 10.24z"/>
                    <path d="M42.79 35.179c-.805-.52-1.764-.57-2.566-.135-.765.417-1.236 1.194-1.278 2.097l-.003.13v23.032c0 .959.48 1.791 1.28 2.227.363.197.758.295 1.155.295.434 0 .872-.117 1.278-.348l.133-.081 17.725-11.47c.746-.482 1.192-1.282 1.192-2.139 0-.814-.402-1.577-1.083-2.065l-.11-.074L42.79 35.179z"/>
                </g>
            </g>
        </g>
    </g>
</svg>
