
<svg width="448" height="336" xmlns="http://www.w3.org/2000/svg" xmlns:xlink="http://www.w3.org/1999/xlink">
    <defs>
        <path d="M20 0h408c11.046 0 20 8.954 20 20v296c0 11.046-8.954 20-20 20H20c-11.046 0-20-8.954-20-20V20C0 8.954 8.954 0 20 0z" id="a"/>
    </defs>
    <g fill="none" fill-rule="evenodd">
        <mask id="b" fill="#fff">
            <use xlink:href="#a"/>
        </mask>
        <use fill="#ECECEC" xlink:href="#a"/>
        <g mask="url(#b)">
            <path d="M137.385 144h174.23v48h-174.23z"/>
            <path d="M159.027 172.777c.224.543.15 1.242.037 1.67-.187.737-.673 1.514-2.095 1.514-1.347 0-2.17-.815-2.17-2.02v-2.174H149v1.709c0 5.01 3.779 6.524 7.857 6.524 3.89 0 7.108-1.398 7.632-5.126.262-1.942.075-3.185-.037-3.69-.898-4.699-9.092-6.097-9.728-8.699a3.14 3.14 0 0 1-.037-1.165c.15-.699.636-1.514 1.983-1.514 1.272 0 2.02.815 2.02 2.02v1.397h5.388v-1.592c0-4.893-4.228-5.631-7.296-5.631-3.854 0-6.959 1.32-7.558 4.97-.15 1.01-.187 1.904.038 3.03.973 4.544 8.642 5.864 9.765 8.777zm70.15-.04c.224.545.15 1.244.037 1.632-.187.738-.673 1.476-2.095 1.476-1.347 0-2.133-.816-2.133-2.02v-2.136h-5.724v1.71c0 4.931 3.741 6.446 7.782 6.446 3.854 0 7.034-1.36 7.558-5.088.261-1.903.074-3.184-.038-3.65-.898-4.66-9.016-6.02-9.615-8.622a3.14 3.14 0 0 1-.037-1.165c.15-.699.598-1.475 1.945-1.475 1.235 0 1.983.815 1.983 2.02v1.358h5.35v-1.553c0-4.816-4.19-5.592-7.22-5.592-3.78 0-6.885 1.32-7.483 4.932-.15.97-.187 1.864.037 2.99.973 4.544 8.568 5.864 9.653 8.738zm44.783 1.981-.299-18.019h5.35v22.136h-7.707l-5.425-18.602.3 18.602h-5.313v-22.136h8.006l5.088 18.02zm-97.012-16.388-2.993 20.738h-5.837l3.966-22.369h9.615l3.966 22.369h-5.799l-2.918-20.738zm31.502 0-3.742 20.738h-5.462l-3.704-20.738-.15 20.738h-5.387l.449-22.369h8.792l2.731 17.476 2.731-17.476h8.792l.487 22.369h-5.388l-.15-20.738zm38.835 17.398c1.496 0 1.983-1.087 2.057-1.63.038-.234.038-.583.038-.855V156.66h5.462v16.078c0 .427-.037 1.243-.037 1.476-.374 4.194-3.555 5.553-7.52 5.553-3.966 0-7.146-1.36-7.52-5.553-.038-.233-.075-1.049-.038-1.476V156.66h5.463v16.583c0 .272 0 .621.037.854.112.583.561 1.631 2.058 1.631zm45.045-.233c1.572 0 2.095-1.048 2.208-1.63.037-.273.074-.583.037-.855v-3.262h-2.207v-3.263H300v6.02c0 .427 0 .738-.075 1.476-.374 4.077-3.779 5.514-7.595 5.514s-7.22-1.437-7.595-5.514c-.074-.738-.074-1.049-.074-1.476v-9.437c0-.388.037-1.087.074-1.476.487-4.194 3.742-5.514 7.595-5.514 3.816 0 7.184 1.32 7.558 5.514.075.7.037 1.476.037 1.476v.738h-5.462v-1.243s0-.544-.075-.854c-.112-.505-.524-1.631-2.17-1.631-1.571 0-2.02 1.087-2.133 1.63-.074.311-.074.7-.074 1.05v10.252c0 .272 0 .582.037.854.15.621.71 1.631 2.282 1.631z" fill="#AAA" fill-rule="nonzero"/>
        </g>
    </g>
</svg>
