<svg width="24" height="24" viewBox="0 0 24 24" fill="none" xmlns="http://www.w3.org/2000/svg">
<path fill-rule="evenodd" clip-rule="evenodd" d="M19.4034 3.42969C20.0109 3.42969 20.5105 3.8936 20.5672 4.48628L20.5725 4.59883V19.4034C20.5725 20.0109 20.1086 20.5105 19.516 20.5672L19.4034 20.5725H4.59797C3.99051 20.5725 3.49162 20.1086 3.43503 19.516L3.42969 19.4034V4.59883C3.42969 3.99137 3.89284 3.49172 4.48543 3.43504L4.59797 3.42969H19.4034ZM19.4034 4.20883H4.59797C4.4075 4.20883 4.24817 4.34699 4.21512 4.52879L4.20883 4.59883V19.4034C4.20883 19.5946 4.34699 19.754 4.52819 19.7871L4.59797 19.7934H19.4034C19.5946 19.7934 19.754 19.6552 19.7871 19.4734L19.7934 19.4034V4.59883C19.7934 4.40759 19.6552 4.24818 19.4734 4.21512L19.4034 4.20883ZM5.92466 17.5975C6.18266 17.5975 6.3918 17.8066 6.3918 18.0646C6.3918 18.3226 6.18266 18.5318 5.92466 18.5318C5.6658 18.5318 5.45666 18.3226 5.45666 18.0646C5.45666 17.8066 5.6658 17.5975 5.92466 17.5975ZM18.0755 17.5975C18.3335 17.5975 18.5427 17.8066 18.5427 18.0646C18.5427 18.3226 18.3335 18.5318 18.0755 18.5318C17.8167 18.5318 17.6075 18.3226 17.6075 18.0646C17.6075 17.8066 17.8167 17.5975 18.0755 17.5975ZM16.0503 17.5975C16.3083 17.5975 16.5175 17.8066 16.5175 18.0646C16.5175 18.3226 16.3083 18.5318 16.0503 18.5318C15.7915 18.5318 15.5823 18.3226 15.5823 18.0646C15.5823 17.8066 15.7915 17.5975 16.0503 17.5975ZM14.0253 17.5975C14.2833 17.5975 14.4924 17.8066 14.4924 18.0646C14.4924 18.3226 14.2833 18.5318 14.0253 18.5318C13.7664 18.5318 13.5573 18.3226 13.5573 18.0646C13.5573 17.8066 13.7664 17.5975 14.0253 17.5975ZM12.0001 17.5975C12.2581 17.5975 12.4672 17.8066 12.4672 18.0646C12.4672 18.3226 12.2581 18.5318 12.0001 18.5318C11.7412 18.5318 11.5321 18.3226 11.5321 18.0646C11.5321 17.8066 11.7412 17.5975 12.0001 17.5975ZM9.97492 17.5975C10.2329 17.5975 10.4421 17.8066 10.4421 18.0646C10.4421 18.3226 10.2329 18.5318 9.97492 18.5318C9.71606 18.5318 9.50692 18.3226 9.50692 18.0646C9.50692 17.8066 9.71606 17.5975 9.97492 17.5975ZM7.94983 17.5975C8.20783 17.5975 8.41697 17.8066 8.41697 18.0646C8.41697 18.3226 8.20783 18.5318 7.94983 18.5318C7.69097 18.5318 7.48183 18.3226 7.48183 18.0646C7.48183 17.8066 7.69097 17.5975 7.94983 17.5975ZM18.0755 15.5757C18.3335 15.5757 18.5427 15.7848 18.5427 16.0428C18.5427 16.3008 18.3335 16.5099 18.0755 16.5099C17.8167 16.5099 17.6075 16.3008 17.6075 16.0428C17.6075 15.7848 17.8167 15.5757 18.0755 15.5757ZM16.0503 15.5757C16.3083 15.5757 16.5175 15.7848 16.5175 16.0428C16.5175 16.3008 16.3083 16.5099 16.0503 16.5099C15.7915 16.5099 15.5823 16.3008 15.5823 16.0428C15.5823 15.7848 15.7915 15.5757 16.0503 15.5757ZM14.0253 15.5757C14.2833 15.5757 14.4924 15.7848 14.4924 16.0428C14.4924 16.3008 14.2833 16.5099 14.0253 16.5099C13.7664 16.5099 13.5573 16.3008 13.5573 16.0428C13.5573 15.7848 13.7664 15.5757 14.0253 15.5757ZM12.0001 15.5757C12.2581 15.5757 12.4672 15.7848 12.4672 16.0428C12.4672 16.3008 12.2581 16.5099 12.0001 16.5099C11.7412 16.5099 11.5321 16.3008 11.5321 16.0428C11.5321 15.7848 11.7412 15.5757 12.0001 15.5757ZM9.97492 15.5757C10.2329 15.5757 10.4421 15.7848 10.4421 16.0428C10.4421 16.3008 10.2329 16.5099 9.97492 16.5099C9.71606 16.5099 9.50692 16.3008 9.50692 16.0428C9.50692 15.7848 9.71606 15.5757 9.97492 15.5757ZM7.94983 15.5757C8.20783 15.5757 8.41697 15.7848 8.41697 16.0428C8.41697 16.3008 8.20783 16.5099 7.94983 16.5099C7.69097 16.5099 7.48183 16.3008 7.48183 16.0428C7.48183 15.7848 7.69097 15.5757 7.94983 15.5757ZM5.92466 15.5757C6.18266 15.5757 6.3918 15.7848 6.3918 16.0428C6.3918 16.3008 6.18266 16.5099 5.92466 16.5099C5.6658 16.5099 5.45666 16.3008 5.45666 16.0428C5.45666 15.7848 5.6658 15.5757 5.92466 15.5757ZM5.92466 13.5537C6.18266 13.5537 6.3918 13.7629 6.3918 14.0209C6.3918 14.2789 6.18266 14.488 5.92466 14.488C5.6658 14.488 5.45666 14.2789 5.45666 14.0209C5.45666 13.7629 5.6658 13.5537 5.92466 13.5537ZM18.0755 13.5537C18.3335 13.5537 18.5427 13.7629 18.5427 14.0209C18.5427 14.2789 18.3335 14.488 18.0755 14.488C17.8167 14.488 17.6075 14.2789 17.6075 14.0209C17.6075 13.7629 17.8167 13.5537 18.0755 13.5537ZM16.0503 13.5537C16.3083 13.5537 16.5175 13.7629 16.5175 14.0209C16.5175 14.2789 16.3083 14.488 16.0503 14.488C15.7915 14.488 15.5823 14.2789 15.5823 14.0209C15.5823 13.7629 15.7915 13.5537 16.0503 13.5537ZM7.94983 13.5537C8.20783 13.5537 8.41697 13.7629 8.41697 14.0209C8.41697 14.2789 8.20783 14.488 7.94983 14.488C7.69097 14.488 7.48183 14.2789 7.48183 14.0209C7.48183 13.7629 7.69097 13.5537 7.94983 13.5537ZM13.0137 12.5449C13.2717 12.5449 13.4809 12.754 13.4809 13.012C13.4809 13.27 13.2717 13.4792 13.0137 13.4792C12.7549 13.4792 12.5457 13.27 12.5457 13.012C12.5457 12.754 12.7549 12.5449 13.0137 12.5449ZM10.9886 12.5449C11.2466 12.5449 11.4557 12.754 11.4557 13.012C11.4557 13.27 11.2466 13.4792 10.9886 13.4792C10.7297 13.4792 10.5206 13.27 10.5206 13.012C10.5206 12.754 10.7297 12.5449 10.9886 12.5449ZM5.92466 11.5318C6.18266 11.5318 6.3918 11.741 6.3918 11.999C6.3918 12.257 6.18266 12.4661 5.92466 12.4661C5.6658 12.4661 5.45666 12.257 5.45666 11.999C5.45666 11.741 5.6658 11.5318 5.92466 11.5318ZM16.0503 11.5318C16.3083 11.5318 16.5175 11.741 16.5175 11.999C16.5175 12.257 16.3083 12.4661 16.0503 12.4661C15.7915 12.4661 15.5823 12.257 15.5823 11.999C15.5823 11.741 15.7915 11.5318 16.0503 11.5318ZM18.0755 11.5318C18.3335 11.5318 18.5427 11.741 18.5427 11.999C18.5427 12.257 18.3335 12.4661 18.0755 12.4661C17.8167 12.4661 17.6075 12.257 17.6075 11.999C17.6075 11.741 17.8167 11.5318 18.0755 11.5318ZM7.94983 11.5318C8.20783 11.5318 8.41697 11.741 8.41697 11.999C8.41697 12.257 8.20783 12.4661 7.94983 12.4661C7.69097 12.4661 7.48183 12.257 7.48183 11.999C7.48183 11.741 7.69097 11.5318 7.94983 11.5318ZM13.0137 10.5231C13.2717 10.5231 13.4809 10.7322 13.4809 10.9902C13.4809 11.2482 13.2717 11.4573 13.0137 11.4573C12.7549 11.4573 12.5457 11.2482 12.5457 10.9902C12.5457 10.7322 12.7549 10.5231 13.0137 10.5231ZM10.9886 10.5231C11.2466 10.5231 11.4557 10.7322 11.4557 10.9902C11.4557 11.2482 11.2466 11.4573 10.9886 11.4573C10.7297 11.4573 10.5206 11.2482 10.5206 10.9902C10.5206 10.7322 10.7297 10.5231 10.9886 10.5231ZM7.94983 9.51C8.20783 9.51 8.41697 9.71914 8.41697 9.97714C8.41697 10.2351 8.20783 10.4443 7.94983 10.4443C7.69097 10.4443 7.48183 10.2351 7.48183 9.97714C7.48183 9.71914 7.69097 9.51 7.94983 9.51ZM16.0503 9.51C16.3083 9.51 16.5175 9.71914 16.5175 9.97714C16.5175 10.2351 16.3083 10.4443 16.0503 10.4443C15.7915 10.4443 15.5823 10.2351 15.5823 9.97714C15.5823 9.71914 15.7915 9.51 16.0503 9.51ZM5.92466 9.51C6.18266 9.51 6.3918 9.71914 6.3918 9.97714C6.3918 10.2351 6.18266 10.4443 5.92466 10.4443C5.6658 10.4443 5.45666 10.2351 5.45666 9.97714C5.45666 9.71914 5.6658 9.51 5.92466 9.51ZM18.0755 9.51C18.3335 9.51 18.5427 9.71914 18.5427 9.97714C18.5427 10.2351 18.3335 10.4443 18.0755 10.4443C17.8167 10.4443 17.6075 10.2351 17.6075 9.97714C17.6075 9.71914 17.8167 9.51 18.0755 9.51ZM5.92466 7.48809C6.18266 7.48809 6.3918 7.69723 6.3918 7.95523C6.3918 8.21323 6.18266 8.42237 5.92466 8.42237C5.6658 8.42237 5.45666 8.21323 5.45666 7.95523C5.45666 7.69723 5.6658 7.48809 5.92466 7.48809ZM18.0755 7.48809C18.3335 7.48809 18.5427 7.69723 18.5427 7.95523C18.5427 8.21323 18.3335 8.42237 18.0755 8.42237C17.8167 8.42237 17.6075 8.21323 17.6075 7.95523C17.6075 7.69723 17.8167 7.48809 18.0755 7.48809ZM16.0503 7.48809C16.3083 7.48809 16.5175 7.69723 16.5175 7.95523C16.5175 8.21323 16.3083 8.42237 16.0503 8.42237C15.7915 8.42237 15.5823 8.21323 15.5823 7.95523C15.5823 7.69723 15.7915 7.48809 16.0503 7.48809ZM14.0253 7.48809C14.2833 7.48809 14.4924 7.69723 14.4924 7.95523C14.4924 8.21323 14.2833 8.42237 14.0253 8.42237C13.7664 8.42237 13.5573 8.21323 13.5573 7.95523C13.5573 7.69723 13.7664 7.48809 14.0253 7.48809ZM12.0001 7.48809C12.2581 7.48809 12.4672 7.69723 12.4672 7.95523C12.4672 8.21323 12.2581 8.42237 12.0001 8.42237C11.7412 8.42237 11.5321 8.21323 11.5321 7.95523C11.5321 7.69723 11.7412 7.48809 12.0001 7.48809ZM9.97492 7.48809C10.2329 7.48809 10.4421 7.69723 10.4421 7.95523C10.4421 8.21323 10.2329 8.42237 9.97492 8.42237C9.71606 8.42237 9.50692 8.21323 9.50692 7.95523C9.50692 7.69723 9.71606 7.48809 9.97492 7.48809ZM7.94983 7.48809C8.20783 7.48809 8.41697 7.69723 8.41697 7.95523C8.41697 8.21323 8.20783 8.42237 7.94983 8.42237C7.69097 8.42237 7.48183 8.21323 7.48183 7.95523C7.48183 7.69723 7.69097 7.48809 7.94983 7.48809ZM5.92466 5.46617C6.18266 5.46617 6.3918 5.67532 6.3918 5.93332C6.3918 6.19132 6.18266 6.40046 5.92466 6.40046C5.6658 6.40046 5.45666 6.19132 5.45666 5.93332C5.45666 5.67532 5.6658 5.46617 5.92466 5.46617ZM18.0755 5.46617C18.3335 5.46617 18.5427 5.67532 18.5427 5.93332C18.5427 6.19132 18.3335 6.40046 18.0755 6.40046C17.8167 6.40046 17.6075 6.19132 17.6075 5.93332C17.6075 5.67532 17.8167 5.46617 18.0755 5.46617ZM16.0503 5.46617C16.3083 5.46617 16.5175 5.67532 16.5175 5.93332C16.5175 6.19132 16.3083 6.40046 16.0503 6.40046C15.7915 6.40046 15.5823 6.19132 15.5823 5.93332C15.5823 5.67532 15.7915 5.46617 16.0503 5.46617ZM14.0253 5.46617C14.2833 5.46617 14.4924 5.67532 14.4924 5.93332C14.4924 6.19132 14.2833 6.40046 14.0253 6.40046C13.7664 6.40046 13.5573 6.19132 13.5573 5.93332C13.5573 5.67532 13.7664 5.46617 14.0253 5.46617ZM12.0001 5.46617C12.2581 5.46617 12.4672 5.67532 12.4672 5.93332C12.4672 6.19132 12.2581 6.40046 12.0001 6.40046C11.7412 6.40046 11.5321 6.19132 11.5321 5.93332C11.5321 5.67532 11.7412 5.46617 12.0001 5.46617ZM9.97492 5.46617C10.2329 5.46617 10.4421 5.67532 10.4421 5.93332C10.4421 6.19132 10.2329 6.40046 9.97492 6.40046C9.71606 6.40046 9.50692 6.19132 9.50692 5.93332C9.50692 5.67532 9.71606 5.46617 9.97492 5.46617ZM7.94983 5.46617C8.20783 5.46617 8.41697 5.67532 8.41697 5.93332C8.41697 6.19132 8.20783 6.40046 7.94983 6.40046C7.69097 6.40046 7.48183 6.19132 7.48183 5.93332C7.48183 5.67532 7.69097 5.46617 7.94983 5.46617Z" fill="white"/>
</svg>