<svg width="24" height="24" viewBox="0 0 24 24" fill="none" xmlns="http://www.w3.org/2000/svg">
<path fill-rule="evenodd" clip-rule="evenodd" d="M19.7109 4.28906C21.0805 4.28906 22.1998 5.35945 22.278 6.70939L22.2824 6.86049V17.1462C22.2824 18.5158 21.212 19.6351 19.862 19.7133L19.7109 19.7176H4.28237C2.9128 19.7176 1.79351 18.6472 1.7153 17.2973L1.71094 17.1462V6.86049C1.71094 5.49093 2.78132 4.37163 4.13126 4.29343L4.28237 4.28906H19.7109ZM21.4252 7.63792H2.56808V17.1462C2.56808 18.0487 3.26863 18.7902 4.15459 18.8558L4.28237 18.8605H19.7109C20.6134 18.8605 21.355 18.1599 21.4205 17.274L21.4252 17.1462V7.63792ZM12.5622 8.5506C12.8159 8.5506 13.0412 8.70437 13.1368 8.93299L13.1663 9.02208L13.3055 9.57935L13.4043 9.61392L13.4761 9.64192L14.026 9.3123C14.2164 9.19775 14.4485 9.19579 14.6374 9.29563L14.7154 9.34462L14.7866 9.40589L15.7003 10.3196C15.8799 10.4992 15.9306 10.7664 15.8363 10.9953L15.7941 11.0792L15.4972 11.5722L15.5725 11.7357L16.1973 11.8928C16.4128 11.9466 16.5783 12.1091 16.6412 12.3132L16.6617 12.4031L16.6688 12.4969V13.7886C16.6688 14.0424 16.5149 14.267 16.2866 14.3623L16.1976 14.3918L15.6395 14.5311L15.6046 14.6325L15.5769 14.7025L15.9071 15.2524C16.0216 15.4428 16.0236 15.675 15.9237 15.8638L15.8747 15.9418L15.8135 16.013L14.8998 16.9267C14.7207 17.1058 14.4529 17.156 14.2241 17.0619L14.1405 17.0198L13.6467 16.7236L13.4821 16.7991L13.3266 17.4237C13.2728 17.6391 13.1104 17.8041 12.9066 17.8668L12.8169 17.8873L12.7233 17.8943H11.4308C11.1771 17.8943 10.9524 17.7413 10.857 17.5127L10.8275 17.4236L10.6869 16.8651L10.5164 16.8033L9.967 17.1335C9.77636 17.2481 9.54378 17.25 9.3556 17.1502L9.27793 17.1012L9.2072 17.0399L8.29348 16.1262C8.1139 15.9466 8.06326 15.6787 8.15751 15.4497L8.19968 15.3659L8.49437 14.8731L8.41979 14.7076L7.79699 14.5531C7.5809 14.4994 7.41545 14.3366 7.3526 14.1324L7.33209 14.0426L7.32505 13.9489V12.6572C7.32505 12.4032 7.47842 12.1778 7.7073 12.0825L7.79652 12.0531L8.35294 11.9125L8.41551 11.7428L8.08501 11.1919C7.97194 11.0017 7.96993 10.7701 8.06949 10.5817L8.11835 10.5038L8.17948 10.4327L9.0932 9.51903C9.27278 9.33945 9.54065 9.28881 9.76988 9.38318L9.85378 9.4254L10.3449 9.72078L10.5104 9.6462L10.6668 9.0202C10.7218 8.80574 10.8841 8.64081 11.0875 8.5781L11.1771 8.55763L11.2705 8.5506H12.5622ZM12.5452 9.19278H11.2861L11.0947 9.96204C11.0792 10.0241 11.0458 10.0792 11 10.1212L10.9502 10.1587L10.8933 10.1862C10.7619 10.2342 10.6304 10.2944 10.4832 10.3724C10.4035 10.4146 10.3109 10.4209 10.2276 10.392L10.1672 10.3638L9.53579 9.98392L8.64437 10.8753L9.05167 11.5521C9.08486 11.6073 9.1002 11.6703 9.09727 11.7328L9.08825 11.7948L9.06695 11.8548C9.01291 11.9694 8.96804 12.0939 8.91209 12.2765C8.88567 12.3627 8.82469 12.4328 8.74539 12.4714L8.68272 12.4942L7.96722 12.6728V13.9319L8.73648 14.1247C8.7989 14.1403 8.85419 14.1739 8.8963 14.2201L8.93379 14.2702L8.96113 14.3276C9.00802 14.4576 9.0676 14.5882 9.14598 14.7362C9.18811 14.8158 9.19449 14.9083 9.16572 14.9916L9.13756 15.0519L8.75922 15.6831L9.64979 16.5728L10.3267 16.1676C10.3819 16.1345 10.4448 16.1192 10.5073 16.1221L10.5693 16.1311L10.6292 16.1524C10.7439 16.2065 10.8684 16.2513 11.0509 16.3073C11.1372 16.3337 11.2073 16.3947 11.2458 16.474L11.2686 16.5367L11.4464 17.2508H12.7064L12.8992 16.4826C12.9148 16.4204 12.9483 16.3653 12.9943 16.3232L13.0443 16.2858L13.1015 16.2584C13.2327 16.2109 13.3652 16.1504 13.5091 16.0738C13.5887 16.0314 13.6814 16.0248 13.7649 16.0536L13.8254 16.0817L14.4567 16.4596L15.3472 15.5691L14.9419 14.8924C14.9089 14.8374 14.8937 14.7747 14.8965 14.7124L14.9054 14.6506L14.9265 14.5909L14.9658 14.5015V14.5015L15.0037 14.4038L15.0819 14.1688C15.1083 14.0829 15.1692 14.013 15.2483 13.9745L15.3107 13.9517L16.0252 13.7716V12.5116L15.257 12.3201C15.1951 12.3046 15.1402 12.2714 15.0983 12.2257L15.0609 12.1761L15.0334 12.1194C14.9846 11.9867 14.9235 11.8533 14.8473 11.7103C14.8049 11.6306 14.7984 11.5377 14.8272 11.4543L14.8555 11.3937L15.2341 10.7622L14.3427 9.87078L13.667 10.2774C13.6121 10.3103 13.5495 10.3256 13.4874 10.3229L13.4256 10.3141L13.366 10.2931C13.2485 10.2385 13.1192 10.1917 12.9429 10.1376C12.8567 10.1112 12.7866 10.0502 12.748 9.97094L12.7252 9.90828L12.5452 9.19278ZM11.9967 11.1871C13.1213 11.1871 14.0324 12.0981 14.0324 13.2228C14.0324 14.3475 13.1213 15.2585 11.9967 15.2585C10.872 15.2585 9.96094 14.3475 9.96094 13.2228C9.96094 12.0981 10.872 11.1871 11.9967 11.1871ZM11.9967 11.8299C11.227 11.8299 10.6038 12.4532 10.6038 13.2228C10.6038 13.9924 11.227 14.6157 11.9967 14.6157C12.7663 14.6157 13.3895 13.9924 13.3895 13.2228C13.3895 12.4532 12.7663 11.8299 11.9967 11.8299ZM19.7109 5.14621H4.28237C3.37991 5.14621 2.63834 5.84676 2.57279 6.73272L2.57065 6.78078L21.4234 6.78099C21.3837 5.91484 20.6985 5.21453 19.8387 5.15092L19.7109 5.14621Z" fill="white"/>
</svg>
