<svg width="16" height="16" xmlns="http://www.w3.org/2000/svg">
    <path d="M10.362 2.583A5.417 5.417 0 1 1 8 12.876a5.417 5.417 0 1 1 0-9.752 5.393 5.393 0 0 1 2.362-.54zM5.638 3.917a4.084 4.084 0 1 0 1.022 8.038A5.402 5.402 0 0 1 4.945 8c0-1.56.66-2.966 1.715-3.954a4.08 4.08 0 0 0-1.022-.13zm4.724 0a4.09 4.09 0 0 0-1.022.128A5.402 5.402 0 0 1 11.055 8c0 1.56-.66 2.966-1.715 3.954a4.084 4.084 0 1 0 1.021-8.038zM8 4.669l-.05.036A4.078 4.078 0 0 0 6.278 8c0 1.375.68 2.592 1.722 3.331A4.079 4.079 0 0 0 9.722 8c0-1.375-.68-2.592-1.722-3.331z" fill="#000" fill-rule="nonzero"/>
</svg>
